<svg width="24" height="25" viewBox="0 0 24 25" fill="none" xmlns="http://www.w3.org/2000/svg">
    <path d="M12.75 9.5C12.75 9.30109 12.671 9.11032 12.5303 8.96967C12.3897 8.82902 12.1989 8.75 12 8.75C11.8011 8.75 11.6103 8.82902 11.4697 8.96967C11.329 9.11032 11.25 9.30109 11.25 9.5V11.75H9C8.80109 11.75 8.61032 11.829 8.46967 11.9697C8.32902 12.1103 8.25 12.3011 8.25 12.5C8.25 12.6989 8.32902 12.8897 8.46967 13.0303C8.61032 13.171 8.80109 13.25 9 13.25H11.25V15.5C11.25 15.6989 11.329 15.8897 11.4697 16.0303C11.6103 16.171 11.8011 16.25 12 16.25C12.1989 16.25 12.3897 16.171 12.5303 16.0303C12.671 15.8897 12.75 15.6989 12.75 15.5V13.25H15C15.1989 13.25 15.3897 13.171 15.5303 13.0303C15.671 12.8897 15.75 12.6989 15.75 12.5C15.75 12.3011 15.671 12.1103 15.5303 11.9697C15.3897 11.829 15.1989 11.75 15 11.75H12.75V9.5Z" fill="currentColor"/>
    <path fill-rule="evenodd" clip-rule="evenodd" d="M12 1.75C6.063 1.75 1.25 6.563 1.25 12.5C1.25 18.437 6.063 23.25 12 23.25C17.937 23.25 22.75 18.437 22.75 12.5C22.75 6.563 17.937 1.75 12 1.75ZM2.75 12.5C2.75 10.0467 3.72455 7.69397 5.45926 5.95926C7.19397 4.22455 9.54675 3.25 12 3.25C14.4533 3.25 16.806 4.22455 18.5407 5.95926C20.2754 7.69397 21.25 10.0467 21.25 12.5C21.25 14.9533 20.2754 17.306 18.5407 19.0407C16.806 20.7754 14.4533 21.75 12 21.75C9.54675 21.75 7.19397 20.7754 5.45926 19.0407C3.72455 17.306 2.75 14.9533 2.75 12.5Z" fill="currentColor"/>
</svg>
