<svg width="27" height="34" viewBox="0 0 27 34" fill="none" xmlns="http://www.w3.org/2000/svg">
    <path d="M13.8195 7.84615C15.3084 7.84615 17.1748 6.80864 18.2862 5.4253C19.2928 4.17165 20.0267 2.42085 20.0267 0.670056C20.0267 0.432294 20.0058 0.194533 19.9638 0C18.3072 0.0648443 16.315 1.14558 15.1197 2.59377C14.176 3.69612 13.3162 5.4253 13.3162 7.19771C13.3162 7.45709 13.3581 7.71647 13.3791 7.80293C13.484 7.82454 13.6517 7.84615 13.8195 7.84615ZM8.57689 34C10.611 34 11.5127 32.595 14.0502 32.595C16.6295 32.595 17.1957 33.9568 19.4605 33.9568C21.6834 33.9568 23.1723 31.8385 24.5773 29.7635C26.1501 27.3859 26.8002 25.0515 26.8421 24.9434C26.6953 24.9002 22.4383 23.1062 22.4383 18.0699C22.4383 13.7038 25.7936 11.7368 25.9823 11.5855C23.7595 8.30006 20.3832 8.21361 19.4605 8.21361C16.965 8.21361 14.9309 9.76987 13.6517 9.76987C12.2677 9.76987 10.4433 8.30006 8.28331 8.30006C4.17311 8.30006 0 11.8017 0 18.4158C0 22.5226 1.55181 26.8671 3.46012 29.677C5.09581 32.0547 6.52179 34 8.57689 34Z" fill="currentColor"/>
</svg>
