<svg width="18" height="18" viewBox="0 0 18 18" fill="none" xmlns="http://www.w3.org/2000/svg">
    <path d="M9 16.5C5.4645 16.5 3.69675 16.5 2.598 15.4012C1.5 14.304 1.5 12.5355 1.5 9C1.5 5.4645 1.5 3.69675 2.598 2.598C3.6975 1.5 5.4645 1.5 9 1.5C12.5355 1.5 14.3032 1.5 15.4012 2.598C16.5 3.6975 16.5 5.4645 16.5 9C16.5 12.5355 16.5 14.3032 15.4012 15.4012C14.304 16.5 12.5355 16.5 9 16.5Z" stroke="currentColor" stroke-width="1.125"/>
    <path d="M10.0673 13.0215L12.7013 6.147C12.7512 6.02837 12.7647 5.89755 12.7399 5.77124C12.7152 5.64494 12.6533 5.52888 12.5622 5.43791C12.4712 5.34693 12.3551 5.28518 12.2288 5.26052C12.1024 5.23587 11.9716 5.24944 11.853 5.2995L4.97853 7.93275C4.35603 8.172 4.33578 9.045 4.94853 9.231L7.55628 10.0237C7.75878 10.0852 7.91478 10.2412 7.97628 10.4437L8.76903 13.0515C8.95503 13.6642 9.82803 13.644 10.0665 13.0215H10.0673Z" stroke="currentColor" stroke-width="1.125"/>
</svg>
