<svg width="18" height="18" viewBox="0 0 18 18" fill="none" xmlns="http://www.w3.org/2000/svg">
    <path fill-rule="evenodd" clip-rule="evenodd" d="M5.25 1.3125C5.39918 1.3125 5.54226 1.37176 5.64775 1.47725C5.75324 1.58274 5.8125 1.72582 5.8125 1.875V2.44725C6.309 2.4375 6.85575 2.4375 7.458 2.4375H10.542C11.1443 2.4375 11.691 2.4375 12.1875 2.44725V1.875C12.1875 1.72582 12.2468 1.58274 12.3523 1.47725C12.4577 1.37176 12.6008 1.3125 12.75 1.3125C12.8992 1.3125 13.0423 1.37176 13.1477 1.47725C13.2532 1.58274 13.3125 1.72582 13.3125 1.875V2.49525C13.5075 2.51025 13.6923 2.52925 13.8668 2.55225C14.7458 2.67075 15.4575 2.91975 16.0193 3.48075C16.5803 4.0425 16.8293 4.75425 16.9478 5.63325C16.9848 5.91425 17.0115 6.22175 17.028 6.55575C17.0688 6.66641 17.0738 6.7871 17.0423 6.90075C17.0625 7.5015 17.0625 8.18475 17.0625 8.958V10.542C17.0625 11.9205 17.0625 13.0125 16.9478 13.8668C16.8293 14.7458 16.5803 15.4575 16.0193 16.0192C15.4575 16.5802 14.7458 16.8293 13.8668 16.9478C13.0118 17.0625 11.9205 17.0625 10.542 17.0625H7.458C6.0795 17.0625 4.9875 17.0625 4.13325 16.9478C3.25425 16.8293 2.5425 16.5802 1.98075 16.0192C1.41975 15.4575 1.17075 14.7458 1.05225 13.8668C0.9375 13.0118 0.9375 11.9205 0.9375 10.542V8.958C0.9375 8.18475 0.9375 7.5015 0.95775 6.9C0.926453 6.78627 0.931701 6.66558 0.97275 6.555C0.98875 6.2215 1.01525 5.91425 1.05225 5.63325C1.17075 4.75425 1.41975 4.0425 1.98075 3.48075C2.5425 2.91975 3.25425 2.67075 4.13325 2.55225C4.30825 2.52925 4.493 2.51025 4.6875 2.49525V1.875C4.6875 1.72582 4.74676 1.58274 4.85225 1.47725C4.95774 1.37176 5.10082 1.3125 5.25 1.3125ZM2.07225 7.3125C2.0625 7.80225 2.0625 8.3595 2.0625 9V10.5C2.0625 11.9303 2.064 12.9465 2.1675 13.7175C2.26875 14.4713 2.45925 14.9062 2.7765 15.2235C3.09375 15.5408 3.52875 15.7313 4.28325 15.8325C5.05425 15.936 6.06975 15.9375 7.5 15.9375H10.5C11.9303 15.9375 12.9465 15.936 13.7175 15.8325C14.4713 15.7313 14.9063 15.5408 15.2235 15.2235C15.5408 14.9062 15.7313 14.4712 15.8325 13.7167C15.936 12.9465 15.9375 11.9303 15.9375 10.5V9C15.9375 8.3595 15.9375 7.80225 15.9278 7.3125H2.07225ZM15.876 6.1875H2.124C2.136 6.0455 2.1505 5.9105 2.1675 5.7825C2.26875 5.02875 2.45925 4.59375 2.7765 4.2765C3.09375 3.95925 3.52875 3.76875 4.28325 3.6675C5.05425 3.564 6.06975 3.5625 7.5 3.5625H10.5C11.9303 3.5625 12.9465 3.564 13.7175 3.6675C14.4713 3.76875 14.9063 3.95925 15.2235 4.2765C15.5408 4.59375 15.7313 5.02875 15.8325 5.78325C15.8495 5.91075 15.864 6.0455 15.876 6.1875Z" fill="currentColor"/>
</svg>
