<svg width="18" height="18" viewBox="0 0 18 18" fill="none" xmlns="http://www.w3.org/2000/svg">
    <path fill-rule="evenodd" clip-rule="evenodd" d="M5.6985 3.36525C5.89875 2.38275 6.77325 1.6875 7.7745 1.6875H10.2255C11.2267 1.6875 12.1005 2.38275 12.3015 3.36525C12.3237 3.47344 12.3816 3.57103 12.4659 3.64231C12.5503 3.7136 12.6561 3.75444 12.7665 3.75825H12.7913C13.8435 3.80475 14.652 3.93375 15.327 4.377C15.7523 4.656 16.1182 5.0145 16.4032 5.43375C16.758 5.95425 16.914 6.55275 16.989 7.27575C17.0625 7.983 17.0625 8.86875 17.0625 9.99075V10.0545C17.0625 11.1765 17.0625 12.063 16.989 12.7695C16.914 13.4925 16.758 14.091 16.4032 14.6122C16.1167 15.0312 15.7511 15.3901 15.327 15.669C14.7998 16.0148 14.1945 16.1677 13.461 16.2405C12.7425 16.3125 11.8417 16.3125 10.6972 16.3125H7.30275C6.15825 16.3125 5.2575 16.3125 4.539 16.2405C3.8055 16.1677 3.20025 16.0155 2.673 15.669C2.24883 15.3899 1.88324 15.0307 1.59675 14.6115C1.242 14.091 1.086 13.4925 1.011 12.7695C0.9375 12.063 0.9375 11.1765 0.9375 10.0545V9.99075C0.9375 8.86875 0.9375 7.983 1.011 7.27575C1.086 6.55275 1.242 5.95425 1.59675 5.43375C1.88324 5.01455 2.24883 4.65533 2.673 4.37625C3.348 3.93375 4.1565 3.80475 5.20875 3.759L5.2215 3.75825H5.2335C5.34387 3.75444 5.44974 3.7136 5.53409 3.64231C5.61843 3.57103 5.67634 3.47344 5.6985 3.36525ZM7.7745 2.8125C7.2945 2.8125 6.89175 3.14475 6.801 3.5895C6.65475 4.3095 6.01575 4.8765 5.247 4.88325C4.236 4.92825 3.6945 5.052 3.2895 5.3175C2.98909 5.51545 2.73003 5.76992 2.52675 6.06675C2.31975 6.3705 2.19525 6.75975 2.12925 7.392C2.06325 8.034 2.0625 8.862 2.0625 10.023C2.0625 11.184 2.0625 12.0113 2.13 12.6532C2.19525 13.2855 2.31975 13.6748 2.5275 13.9792C2.7285 14.2747 2.98725 14.5298 3.29025 14.7285C3.603 14.9333 4.0035 15.057 4.65075 15.1215C5.30625 15.1868 6.15075 15.1875 7.3335 15.1875H10.6665C11.8485 15.1875 12.693 15.1875 13.3492 15.1215C13.9965 15.057 14.397 14.934 14.7098 14.7285C15.0128 14.5298 15.2723 14.2748 15.4733 13.9785C15.6803 13.6748 15.8047 13.2855 15.8707 12.6532C15.9367 12.0113 15.9375 11.1833 15.9375 10.023C15.9375 8.86275 15.9375 8.034 15.87 7.392C15.8047 6.75975 15.6802 6.3705 15.4725 6.06675C15.2693 5.76965 15.0102 5.51492 14.7098 5.31675C14.3063 5.052 13.7648 4.92825 12.7523 4.88325C11.9843 4.87575 11.3453 4.31025 11.199 3.5895C11.151 3.3677 11.0279 3.16927 10.8506 3.02771C10.6732 2.88614 10.4524 2.81013 10.2255 2.8125H7.7745ZM9 8.0625C8.55245 8.0625 8.12323 8.24029 7.80676 8.55676C7.49029 8.87323 7.3125 9.30245 7.3125 9.75C7.3125 10.1976 7.49029 10.6268 7.80676 10.9432C8.12323 11.2597 8.55245 11.4375 9 11.4375C9.44755 11.4375 9.87677 11.2597 10.1932 10.9432C10.5097 10.6268 10.6875 10.1976 10.6875 9.75C10.6875 9.30245 10.5097 8.87323 10.1932 8.55676C9.87677 8.24029 9.44755 8.0625 9 8.0625ZM6.1875 9.75C6.1875 9.00408 6.48382 8.28871 7.01126 7.76126C7.53871 7.23382 8.25408 6.9375 9 6.9375C9.74592 6.9375 10.4613 7.23382 10.9887 7.76126C11.5162 8.28871 11.8125 9.00408 11.8125 9.75C11.8125 10.4959 11.5162 11.2113 10.9887 11.7387C10.4613 12.2662 9.74592 12.5625 9 12.5625C8.25408 12.5625 7.53871 12.2662 7.01126 11.7387C6.48382 11.2113 6.1875 10.4959 6.1875 9.75ZM12.9375 7.5C12.9375 7.35082 12.9968 7.20774 13.1023 7.10225C13.2077 6.99676 13.3508 6.9375 13.5 6.9375H14.25C14.3992 6.9375 14.5423 6.99676 14.6477 7.10225C14.7532 7.20774 14.8125 7.35082 14.8125 7.5C14.8125 7.64918 14.7532 7.79226 14.6477 7.89775C14.5423 8.00324 14.3992 8.0625 14.25 8.0625H13.5C13.3508 8.0625 13.2077 8.00324 13.1023 7.89775C12.9968 7.79226 12.9375 7.64918 12.9375 7.5Z" fill="currentColor"/>
</svg>
