<svg width="32" height="33" viewBox="0 0 32 33" fill="none" xmlns="http://www.w3.org/2000/svg">
    <path fill-rule="evenodd" clip-rule="evenodd" d="M20.6507 6.40668C20.7505 6.49218 20.8324 6.5965 20.8918 6.71369C20.9513 6.83087 20.987 6.95862 20.997 7.08963C21.0071 7.22064 20.9912 7.35234 20.9503 7.4772C20.9094 7.60207 20.8443 7.71765 20.7587 7.81734L13.3174 16.5L20.7587 25.1827C20.8492 25.2815 20.919 25.3976 20.9638 25.524C21.0085 25.6503 21.0275 25.7844 21.0194 25.9182C21.0113 26.052 20.9764 26.1829 20.9168 26.3029C20.8572 26.423 20.774 26.5298 20.6722 26.6171C20.5705 26.7044 20.4522 26.7703 20.3244 26.8109C20.1967 26.8516 20.0621 26.8661 19.9286 26.8537C19.7951 26.8413 19.6655 26.8022 19.5474 26.7387C19.4294 26.6752 19.3253 26.5886 19.2414 26.484L11.2414 17.1507C11.0861 16.9694 11.0007 16.7387 11.0007 16.5C11.0007 16.2614 11.0861 16.0306 11.2414 15.8493L19.2414 6.51601C19.414 6.31492 19.6594 6.1906 19.9237 6.17035C20.1879 6.15009 20.4494 6.23558 20.6507 6.40801" fill="currentColor"/>
</svg>
