<svg width="18" height="18" viewBox="0 0 18 18" fill="none" xmlns="http://www.w3.org/2000/svg">
    <path fill-rule="evenodd" clip-rule="evenodd" d="M8.211 0.9375H9.789C10.4633 0.9375 11.025 0.9375 11.4705 0.9975C11.9415 1.0605 12.3667 1.2 12.708 1.54125C13.05 1.88325 13.1895 2.3085 13.2525 2.77875C13.3125 3.225 13.3125 3.7875 13.3125 4.461V5.4375C13.7452 5.4375 14.1112 5.44125 14.4142 5.472C14.769 5.508 15.099 5.58675 15.396 5.78475C15.621 5.9355 15.8145 6.129 15.9653 6.35475C16.1633 6.651 16.242 6.981 16.278 7.33575C16.3125 7.67475 16.3125 8.094 16.3125 8.59575V15.9375H16.5C16.6492 15.9375 16.7923 15.9968 16.8977 16.1023C17.0032 16.2077 17.0625 16.3508 17.0625 16.5C17.0625 16.6492 17.0032 16.7923 16.8977 16.8977C16.7923 17.0032 16.6492 17.0625 16.5 17.0625H1.5C1.35082 17.0625 1.20774 17.0032 1.10225 16.8977C0.996763 16.7923 0.9375 16.6492 0.9375 16.5C0.9375 16.3508 0.996763 16.2077 1.10225 16.1023C1.20774 15.9968 1.35082 15.9375 1.5 15.9375H1.6875V8.5965C1.6875 8.094 1.6875 7.67475 1.722 7.33575C1.758 6.981 1.83675 6.651 2.03475 6.354C2.1855 6.129 2.379 5.9355 2.60475 5.78475C2.901 5.58675 3.231 5.508 3.58575 5.472C3.88875 5.44125 4.25475 5.43825 4.6875 5.4375V4.461C4.6875 3.7875 4.6875 3.225 4.7475 2.7795C4.8105 2.3085 4.95 1.88325 5.29125 1.542C5.63325 1.2 6.0585 1.0605 6.52875 0.9975C6.975 0.9375 7.5375 0.9375 8.211 0.9375ZM4.6875 6.5625C4.25025 6.5625 3.942 6.56625 3.69975 6.591C3.4335 6.618 3.3105 6.666 3.2295 6.72075C3.12769 6.7899 3.0399 6.87769 2.97075 6.9795C2.916 7.0605 2.868 7.1835 2.841 7.44975C2.81325 7.725 2.8125 8.08725 2.8125 8.625V15.9375H4.6875V6.5625ZM5.8125 15.9375H8.4375V14.25C8.4375 14.1008 8.49676 13.9577 8.60225 13.8523C8.70774 13.7468 8.85082 13.6875 9 13.6875C9.14918 13.6875 9.29226 13.7468 9.39775 13.8523C9.50324 13.9577 9.5625 14.1008 9.5625 14.25V15.9375H12.1875V4.5C12.1875 3.777 12.186 3.291 12.1373 2.92875C12.0908 2.583 12.0105 2.4345 11.9123 2.337C11.814 2.2395 11.667 2.15925 11.3212 2.112C10.959 2.064 10.473 2.0625 9.75 2.0625H8.25C7.527 2.0625 7.041 2.064 6.67875 2.11275C6.333 2.15925 6.1845 2.2395 6.087 2.33775C5.9895 2.436 5.90925 2.583 5.862 2.92875C5.81475 3.291 5.8125 3.777 5.8125 4.5V15.9375ZM13.3125 15.9375H15.1875V8.625C15.1875 8.0865 15.1875 7.725 15.159 7.44975C15.132 7.1835 15.084 7.0605 15.0292 6.9795C14.9603 6.87776 14.8728 6.78997 14.7712 6.72075C14.6895 6.666 14.5665 6.618 14.3002 6.591C14.058 6.56625 13.7498 6.56325 13.3125 6.5625V15.9375ZM6.9375 3.75C6.9375 3.60082 6.99676 3.45774 7.10225 3.35225C7.20774 3.24676 7.35082 3.1875 7.5 3.1875H10.5C10.6492 3.1875 10.7923 3.24676 10.8977 3.35225C11.0032 3.45774 11.0625 3.60082 11.0625 3.75C11.0625 3.89918 11.0032 4.04226 10.8977 4.14775C10.7923 4.25324 10.6492 4.3125 10.5 4.3125H7.5C7.35082 4.3125 7.20774 4.25324 7.10225 4.14775C6.99676 4.04226 6.9375 3.89918 6.9375 3.75ZM6.9375 6C6.9375 5.85082 6.99676 5.70774 7.10225 5.60225C7.20774 5.49676 7.35082 5.4375 7.5 5.4375H10.5C10.6492 5.4375 10.7923 5.49676 10.8977 5.60225C11.0032 5.70774 11.0625 5.85082 11.0625 6C11.0625 6.14918 11.0032 6.29226 10.8977 6.39775C10.7923 6.50324 10.6492 6.5625 10.5 6.5625H7.5C7.35082 6.5625 7.20774 6.50324 7.10225 6.39775C6.99676 6.29226 6.9375 6.14918 6.9375 6ZM6.9375 8.25C6.9375 8.10082 6.99676 7.95774 7.10225 7.85225C7.20774 7.74676 7.35082 7.6875 7.5 7.6875H10.5C10.6492 7.6875 10.7923 7.74676 10.8977 7.85225C11.0032 7.95774 11.0625 8.10082 11.0625 8.25C11.0625 8.39918 11.0032 8.54226 10.8977 8.64775C10.7923 8.75324 10.6492 8.8125 10.5 8.8125H7.5C7.35082 8.8125 7.20774 8.75324 7.10225 8.64775C6.99676 8.54226 6.9375 8.39918 6.9375 8.25ZM6.9375 10.5C6.9375 10.3508 6.99676 10.2077 7.10225 10.1023C7.20774 9.99676 7.35082 9.9375 7.5 9.9375H10.5C10.6492 9.9375 10.7923 9.99676 10.8977 10.1023C11.0032 10.2077 11.0625 10.3508 11.0625 10.5C11.0625 10.6492 11.0032 10.7923 10.8977 10.8977C10.7923 11.0032 10.6492 11.0625 10.5 11.0625H7.5C7.35082 11.0625 7.20774 11.0032 7.10225 10.8977C6.99676 10.7923 6.9375 10.6492 6.9375 10.5Z" fill="currentColor"/>
</svg>
