<svg width="24" height="25" viewBox="0 0 24 25" fill="none" xmlns="http://www.w3.org/2000/svg">
    <path d="M9.93747 3.5H5.24997C5.1108 3.5 4.97438 3.53873 4.85596 3.61185C4.73755 3.68496 4.64181 3.78958 4.57947 3.914L1.57947 9.914H8.33397L9.93747 3.5Z" fill="url(#paint0_linear_127_106)"/>
    <path d="M15.666 9.914L14.0625 3.5H18.75C18.8892 3.5 19.0256 3.53873 19.144 3.61185C19.2624 3.68496 19.3582 3.78958 19.4205 3.914L22.4205 9.914H15.666Z" fill="url(#paint1_linear_127_106)"/>
    <path d="M9.0225 4.0685C9.06299 3.90618 9.15658 3.76205 9.2884 3.65904C9.42022 3.55603 9.5827 3.50005 9.75 3.5H14.25C14.4173 3.50005 14.5798 3.55603 14.7116 3.65904C14.8434 3.76205 14.937 3.90618 14.9775 4.0685L16.4775 10.0685C16.4925 10.1285 16.5 10.189 16.5 10.25H7.5C7.50007 10.1888 7.50762 10.1279 7.5225 10.0685L9.0225 4.0685Z" fill="url(#paint2_linear_127_106)"/>
    <path d="M8.35197 9.5H1.78647L1.57947 9.914C1.51459 10.0432 1.48843 10.1884 1.50413 10.3321C1.51983 10.4758 1.57673 10.6119 1.66797 10.724L11.418 22.724C11.4871 22.8087 11.5738 22.8774 11.6722 22.925C11.7706 22.9727 11.8782 22.9983 11.9875 23C12.0969 23.0017 12.2052 22.9795 12.3051 22.935C12.4049 22.8904 12.4938 22.8245 12.5655 22.742L8.35197 9.5Z" fill="url(#paint3_linear_127_106)"/>
    <path d="M11.4344 22.742L15.6479 9.5H22.2134L22.4204 9.914C22.4853 10.0432 22.5115 10.1884 22.4958 10.3321C22.4801 10.4758 22.4232 10.6119 22.3319 10.724L12.5819 22.724C12.5129 22.8087 12.4261 22.8774 12.3277 22.925C12.2293 22.9727 12.1217 22.9983 12.0124 23C11.9031 23.0017 11.7947 22.9795 11.6949 22.935C11.595 22.8904 11.5062 22.8245 11.4344 22.742Z" fill="url(#paint4_linear_127_106)"/>
    <path d="M7.665 9.5L7.5225 10.0685C7.48927 10.202 7.49342 10.3422 7.5345 10.4735L11.2845 22.4735C11.3324 22.6258 11.4276 22.7588 11.5562 22.8533C11.6849 22.9477 11.8404 22.9986 12 22.9986C12.1596 22.9986 12.3151 22.9477 12.4438 22.8533C12.5725 22.7588 12.6676 22.6258 12.7155 22.4735L16.4655 10.4735C16.5066 10.3422 16.5107 10.202 16.4775 10.0685L16.335 9.5H7.665Z" fill="url(#paint5_linear_127_106)"/>
    <path d="M5.24997 3.5C5.11081 3.50001 4.97439 3.53873 4.85597 3.61185C4.73756 3.68496 4.64182 3.78958 4.57947 3.914L1.57947 9.914C1.51459 10.0432 1.48843 10.1884 1.50413 10.3321C1.51983 10.4758 1.57673 10.6119 1.66797 10.724L11.418 22.724C11.4883 22.8105 11.577 22.8803 11.6777 22.9282C11.7784 22.9761 11.8885 23.001 12 23.001C12.1115 23.001 12.2216 22.9761 12.3222 22.9282C12.4229 22.8803 12.5117 22.8105 12.582 22.724L22.332 10.724C22.4235 10.612 22.4806 10.476 22.4966 10.3323C22.5126 10.1886 22.4867 10.0433 22.422 9.914L19.422 3.914C19.3595 3.78935 19.2635 3.68458 19.1448 3.61145C19.0261 3.53832 18.8894 3.49973 18.75 3.5H5.24997Z" fill="url(#paint6_linear_127_106)" fill-opacity="0.7"/>
    <defs>
        <linearGradient id="paint0_linear_127_106" x1="8.74347" y1="0.827" x2="5.26947" y2="9.14" gradientUnits="userSpaceOnUse">
            <stop stop-color="#9FF0F9"/>
            <stop offset="1" stop-color="#29C3FF"/>
        </linearGradient>
        <linearGradient id="paint1_linear_127_106" x1="17.0475" y1="3.5" x2="21.006" y2="13.448" gradientUnits="userSpaceOnUse">
            <stop stop-color="#0FAFFF"/>
            <stop offset="1" stop-color="#102784"/>
        </linearGradient>
        <linearGradient id="paint2_linear_127_106" x1="12" y1="3.5" x2="12" y2="11.9375" gradientUnits="userSpaceOnUse">
            <stop stop-color="#3BD5FF"/>
            <stop offset="1" stop-color="#367AF2"/>
        </linearGradient>
        <linearGradient id="paint3_linear_127_106" x1="3.45297" y1="6.8" x2="11.727" y2="22.76" gradientUnits="userSpaceOnUse">
            <stop stop-color="#0094F0"/>
            <stop offset="1" stop-color="#6CE0FF"/>
        </linearGradient>
        <linearGradient id="paint4_linear_127_106" x1="25.1039" y1="2.75" x2="12.7755" y2="21.242" gradientUnits="userSpaceOnUse">
            <stop stop-color="#1B44B1"/>
            <stop offset="1" stop-color="#2052CB"/>
        </linearGradient>
        <linearGradient id="paint5_linear_127_106" x1="11.994" y1="4.775" x2="11.994" y2="23" gradientUnits="userSpaceOnUse">
            <stop stop-color="#2052CB"/>
            <stop offset="1" stop-color="#0FAFFF"/>
        </linearGradient>
        <linearGradient id="paint6_linear_127_106" x1="-0.633026" y1="-14.863" x2="16.146" y2="24.5795" gradientUnits="userSpaceOnUse">
            <stop offset="0.533" stop-color="#FF6CE8" stop-opacity="0"/>
            <stop offset="1" stop-color="#FF6CE8"/>
        </linearGradient>
    </defs>
</svg>
