<svg width="17" height="16" viewBox="0 0 17 16" fill="none" xmlns="http://www.w3.org/2000/svg">
    <path fill-rule="evenodd" clip-rule="evenodd" d="M3.83337 0.833336C3.96598 0.833336 4.09316 0.886014 4.18693 0.979783C4.2807 1.07355 4.33337 1.20073 4.33337 1.33334V2.05667L5.38271 1.84667C6.57825 1.60785 7.81744 1.72181 8.94937 2.17467L9.08471 2.22867C10.0279 2.60585 11.0659 2.6763 12.0514 2.43C12.243 2.38208 12.4431 2.37847 12.6364 2.41946C12.8297 2.46045 13.0111 2.54495 13.1668 2.66655C13.3225 2.78814 13.4485 2.94364 13.5351 3.12121C13.6217 3.29878 13.6667 3.49376 13.6667 3.69134V8.60267C13.6667 9.26134 13.218 9.836 12.5787 9.996L12.436 10.0313C11.1542 10.3516 9.80411 10.26 8.57737 9.76934C7.62564 9.38881 6.58382 9.29315 5.57871 9.494L4.33337 9.74334V14.6667C4.33337 14.7993 4.2807 14.9265 4.18693 15.0202C4.09316 15.114 3.96598 15.1667 3.83337 15.1667C3.70077 15.1667 3.57359 15.114 3.47982 15.0202C3.38605 14.9265 3.33337 14.7993 3.33337 14.6667V1.33334C3.33337 1.20073 3.38605 1.07355 3.47982 0.979783C3.57359 0.886014 3.70077 0.833336 3.83337 0.833336ZM4.33337 8.72334L5.38271 8.51334C6.57825 8.27452 7.81744 8.38848 8.94937 8.84134C9.98075 9.25363 11.1158 9.33061 12.1934 9.06134L12.3367 9.02534C12.4309 9.00172 12.5146 8.94731 12.5744 8.87073C12.6342 8.79416 12.6667 8.69982 12.6667 8.60267V3.69134C12.6667 3.64573 12.6564 3.60072 12.6364 3.55972C12.6165 3.51872 12.5874 3.48281 12.5515 3.45472C12.5155 3.42663 12.4737 3.40711 12.4291 3.39762C12.3845 3.38814 12.3383 3.38896 12.294 3.4C11.1046 3.69741 9.85177 3.6125 8.71337 3.15734L8.57737 3.10267C7.62564 2.72214 6.58382 2.62648 5.57871 2.82734L4.33337 3.07667V8.72334Z" fill="currentColor"/>
</svg>
