<svg width="18" height="18" viewBox="0 0 18 18" fill="none" xmlns="http://www.w3.org/2000/svg">
    <path d="M1.5 10.5C1.5 7.67175 1.5 6.25725 2.379 5.379C3.258 4.50075 4.67175 4.5 7.5 4.5H10.5C13.3282 4.5 14.7427 4.5 15.621 5.379C16.4992 6.258 16.5 7.67175 16.5 10.5C16.5 13.3282 16.5 14.7427 15.621 15.621C14.742 16.4992 13.3282 16.5 10.5 16.5H7.5C4.67175 16.5 3.25725 16.5 2.379 15.621C1.50075 14.742 1.5 13.3282 1.5 10.5Z" stroke="currentColor" stroke-width="1.125"/>
    <path d="M3 5.25L2.991 4.5C3.075 3.80175 3.25125 3.3195 3.61875 2.95275C4.32375 2.25 5.45925 2.25 7.73025 2.25H10.1385C12.4095 2.25 13.5442 2.25 14.25 2.95275C14.6175 3.3195 14.7937 3.80175 14.8777 4.5V5.25" stroke="currentColor" stroke-width="1.125"/>
    <path d="M13.125 9C13.7463 9 14.25 8.49632 14.25 7.875C14.25 7.25368 13.7463 6.75 13.125 6.75C12.5037 6.75 12 7.25368 12 7.875C12 8.49632 12.5037 9 13.125 9Z" stroke="currentColor" stroke-width="1.125"/>
    <path d="M1.5 10.8749L2.814 9.72517C3.14335 9.43722 3.56981 9.28517 4.00704 9.29979C4.44427 9.31441 4.85962 9.49461 5.169 9.80392L8.3865 13.0214C8.63618 13.271 8.96591 13.4246 9.31766 13.4551C9.66941 13.4855 10.0206 13.3909 10.3095 13.1879L10.5338 13.0304C10.9504 12.7378 11.4541 12.5951 11.9624 12.6257C12.4706 12.6564 12.9535 12.8586 13.332 13.1992L15.75 15.3749" stroke="currentColor" stroke-width="1.125" stroke-linecap="round"/>
</svg>
