<svg width="34" height="34" viewBox="0 0 34 34" fill="none" xmlns="http://www.w3.org/2000/svg">
    <path fill-rule="evenodd" clip-rule="evenodd" d="M33.32 17.3865C33.32 16.181 33.2118 15.0219 33.0109 13.9092H17V20.4851H26.1491C25.755 22.6101 24.5573 24.4105 22.7568 25.616V29.8815H28.2509C31.4655 26.9219 33.32 22.5637 33.32 17.3865Z" fill="#4285F4"/>
    <path fill-rule="evenodd" clip-rule="evenodd" d="M17 34C21.59 34 25.4382 32.4777 28.2509 29.8813L22.7568 25.6159C21.2345 26.6359 19.2873 27.2386 17 27.2386C12.5723 27.2386 8.82453 24.2482 7.48771 20.23H1.80817V24.6345C4.60544 30.1904 10.3545 34 17 34Z" fill="#34A853"/>
    <path fill-rule="evenodd" clip-rule="evenodd" d="M7.48773 20.2298C7.14773 19.2098 6.95455 18.1202 6.95455 16.9998C6.95455 15.8793 7.14773 14.7898 7.48773 13.7698V9.36523H1.80818C0.656818 11.6602 0 14.2566 0 16.9998C0 19.743 0.656818 22.3393 1.80818 24.6343L7.48773 20.2298Z" fill="#FBBC05"/>
    <path fill-rule="evenodd" clip-rule="evenodd" d="M17 6.76136C19.4959 6.76136 21.7368 7.61909 23.4986 9.30364L28.3745 4.42773C25.4304 1.68455 21.5823 0 17 0C10.3545 0 4.60544 3.80955 1.80817 9.36545L7.48771 13.77C8.82453 9.75182 12.5723 6.76136 17 6.76136Z" fill="#EA4335"/>
</svg>
