<svg width="18" height="18" viewBox="0 0 18 18" fill="none" xmlns="http://www.w3.org/2000/svg">
    <mask id="path-1-inside-1_69_3143" fill="white">
        <path fill-rule="evenodd" clip-rule="evenodd" d="M10.7437 2.81253H7.25621C7.14597 3.35303 6.87923 3.84918 6.48917 4.23924C6.09911 4.6293 5.60296 4.89605 5.06246 5.00628V5.49378C5.60296 5.60401 6.09911 5.87075 6.48917 6.26081C6.87923 6.65087 7.14597 7.14703 7.25621 7.68753H10.7437C10.8539 7.14703 11.1207 6.65087 11.5107 6.26081C11.9008 5.87075 12.397 5.60401 12.9375 5.49378V5.00628C12.397 4.89605 11.9008 4.6293 11.5107 4.23924C11.1207 3.84918 10.8539 3.35303 10.7437 2.81253ZM11.1975 1.68978C10.9915 1.68778 10.772 1.68703 10.539 1.68753H7.46096C7.22796 1.68753 7.00871 1.68828 6.80321 1.68978C6.76221 1.68716 6.72107 1.68791 6.68021 1.69203C6.34121 1.69803 6.04046 1.71228 5.77946 1.74753C5.30846 1.81053 4.88321 1.95003 4.54196 2.29128C4.19996 2.63328 4.06046 3.05853 3.99746 3.52878C3.96221 3.79053 3.94796 4.09128 3.94196 4.43028C3.93788 4.4709 3.93713 4.51178 3.93971 4.55253C3.93771 4.75903 3.93696 4.97853 3.93746 5.21103V5.28903C3.93746 5.52153 3.93821 5.74103 3.93971 5.94753C3.93713 5.98827 3.93788 6.02916 3.94196 6.06978C3.94796 6.40953 3.96221 6.70953 3.99746 6.97053C4.06046 7.44153 4.19996 7.86678 4.54196 8.20803C4.88321 8.55003 5.30846 8.68953 5.77946 8.75253C6.04046 8.78778 6.34121 8.80203 6.68021 8.80803C6.72107 8.81215 6.76221 8.8129 6.80321 8.81028C7.00871 8.81228 7.22796 8.81303 7.46096 8.81253H10.539C10.7715 8.81253 10.991 8.81178 11.1975 8.81028C11.2382 8.81286 11.2791 8.8121 11.3197 8.80803C11.6595 8.80203 11.9602 8.78778 12.2205 8.75253C12.6915 8.68953 13.1167 8.55003 13.458 8.20803C13.8 7.86678 13.9395 7.44153 14.0025 6.97053C14.0374 6.67151 14.0559 6.37082 14.058 6.06978C14.062 6.02916 14.0628 5.98827 14.0602 5.94753C14.0622 5.74103 14.063 5.52153 14.0625 5.28903V5.21103C14.0625 4.97853 14.0617 4.75903 14.0602 4.55253C14.0628 4.51178 14.062 4.4709 14.058 4.43028C14.0559 4.12924 14.0374 3.82854 14.0025 3.52953C13.9395 3.05853 13.8 2.63328 13.4587 2.29203C13.1167 1.95003 12.6915 1.81053 12.2212 1.74753C11.9219 1.71258 11.621 1.69405 11.3197 1.69203C11.2791 1.68795 11.2382 1.6872 11.1975 1.68978ZM11.9205 2.84553C12.0055 3.06984 12.1372 3.27354 12.3068 3.44317C12.4764 3.61279 12.6801 3.74448 12.9045 3.82953C12.8997 3.77942 12.894 3.72941 12.8872 3.67953C12.8415 3.33303 12.7605 3.18453 12.6622 3.08703C12.564 2.98953 12.417 2.90928 12.0712 2.86203C12.0213 2.85552 11.9713 2.85002 11.9212 2.84553M12.9052 6.67053C12.6809 6.75557 12.4772 6.88726 12.3076 7.05689C12.1379 7.22652 12.0063 7.43022 11.9212 7.65453C11.9737 7.64953 12.0237 7.64403 12.0712 7.63803C12.4177 7.59078 12.5662 7.51053 12.6637 7.41303C12.7612 7.31553 12.8422 7.16703 12.8887 6.82053C12.8947 6.77303 12.9002 6.72303 12.9052 6.67053ZM6.08021 7.65453C5.99516 7.43022 5.86347 7.22652 5.69384 7.05689C5.52422 6.88726 5.32051 6.75557 5.09621 6.67053C5.10121 6.72303 5.10696 6.77303 5.11346 6.82053C5.15996 7.16703 5.24021 7.31553 5.33846 7.41303C5.43671 7.51053 5.58371 7.59078 5.92946 7.63803C5.97746 7.64403 6.02771 7.64953 6.08021 7.65453ZM5.09621 3.82953C5.32051 3.74448 5.52422 3.61279 5.69384 3.44317C5.86347 3.27354 5.99516 3.06984 6.08021 2.84553C6.02771 2.85053 5.97771 2.85628 5.93021 2.86278C5.58371 2.90928 5.43521 2.98953 5.33771 3.08778C5.24021 3.18603 5.15996 3.33303 5.11271 3.67878L5.09621 3.82953ZM8.99996 5.06253C8.95023 5.06253 8.90254 5.08228 8.86737 5.11744C8.83221 5.15261 8.81246 5.2003 8.81246 5.25003C8.81246 5.29976 8.83221 5.34745 8.86737 5.38261C8.90254 5.41777 8.95023 5.43753 8.99996 5.43753C9.04968 5.43753 9.09738 5.41777 9.13254 5.38261C9.1677 5.34745 9.18746 5.29976 9.18746 5.25003C9.18746 5.2003 9.1677 5.15261 9.13254 5.11744C9.09738 5.08228 9.04968 5.06253 8.99996 5.06253ZM7.68746 5.25003C7.68746 4.90193 7.82574 4.56809 8.07188 4.32195C8.31802 4.07581 8.65186 3.93753 8.99996 3.93753C9.34805 3.93753 9.68189 4.07581 9.92803 4.32195C10.1742 4.56809 10.3125 4.90193 10.3125 5.25003C10.3125 5.59812 10.1742 5.93196 9.92803 6.17811C9.68189 6.42425 9.34805 6.56253 8.99996 6.56253C8.65186 6.56253 8.31802 6.42425 8.07188 6.17811C7.82574 5.93196 7.68746 5.59812 7.68746 5.25003ZM6.51296 10.836C7.91246 10.5653 9.41021 10.626 10.623 11.349C10.7925 11.4503 10.953 11.577 11.0917 11.733C11.3737 12.0503 11.5192 12.4433 11.526 12.8378C11.669 12.7448 11.8132 12.643 11.9587 12.5325L13.3147 11.5088C13.6544 11.2595 14.0648 11.125 14.4862 11.125C14.9076 11.125 15.318 11.2595 15.6577 11.5088C16.284 11.9813 16.5345 12.831 16.0852 13.551C15.7665 14.0618 15.2865 14.769 14.7975 15.222C14.3025 15.6795 13.5997 16.065 13.068 16.3215C12.4215 16.6335 11.724 16.806 11.0452 16.9155C9.65771 17.1405 8.21471 17.106 6.84371 16.8233C6.13668 16.6779 5.41678 16.6043 4.69496 16.6035H2.99996C2.85077 16.6035 2.7077 16.5443 2.60221 16.4388C2.49672 16.3333 2.43746 16.1902 2.43746 16.041C2.43746 15.8918 2.49672 15.7488 2.60221 15.6433C2.7077 15.5378 2.85077 15.4785 2.99996 15.4785H4.69496C5.49146 15.4785 6.29621 15.5618 7.07096 15.7215C8.32058 15.9779 9.60629 16.0062 10.866 15.8048C11.487 15.7043 12.0675 15.555 12.579 15.3083C13.0912 15.0608 13.6672 14.7353 14.0325 14.397C14.4022 14.0543 14.8155 13.461 15.1312 12.9555C15.2265 12.8025 15.213 12.5828 14.9797 12.4065C14.7022 12.1965 14.2695 12.1965 13.9927 12.4065L12.6375 13.4303C12.096 13.839 11.43 14.2763 10.6042 14.4083C10.5177 14.422 10.4309 14.434 10.344 14.4443C10.301 14.4518 10.2562 14.4568 10.2097 14.4593C9.72784 14.506 9.24257 14.506 8.76071 14.4593C8.686 14.4539 8.61313 14.4336 8.54637 14.3996C8.47961 14.3657 8.4203 14.3187 8.37192 14.2615C8.32355 14.2044 8.28708 14.1381 8.26466 14.0666C8.24224 13.9952 8.23432 13.9199 8.24136 13.8454C8.2484 13.7708 8.27027 13.6984 8.30567 13.6324C8.34107 13.5664 8.3893 13.5081 8.44753 13.461C8.50575 13.4139 8.5728 13.3789 8.64474 13.358C8.71668 13.3371 8.79206 13.3309 8.86646 13.3395C9.28252 13.3798 9.70154 13.379 10.1175 13.3373L10.14 13.335C10.2099 13.2916 10.2694 13.2332 10.3141 13.164C10.3587 13.0948 10.3875 13.0166 10.3982 12.9349C10.409 12.8533 10.4015 12.7702 10.3763 12.6918C10.3511 12.6134 10.3088 12.5416 10.2525 12.4815C10.1923 12.4162 10.1228 12.36 10.0462 12.315C9.16046 11.7863 7.97696 11.6985 6.72671 11.94C5.50537 12.1852 4.34758 12.6792 3.32546 13.3913C3.26518 13.434 3.19707 13.4645 3.12503 13.4809C3.05298 13.4973 2.9784 13.4994 2.90556 13.487C2.83271 13.4746 2.76302 13.448 2.70046 13.4087C2.6379 13.3693 2.5837 13.3181 2.54096 13.2578C2.49821 13.1975 2.46776 13.1294 2.45133 13.0573C2.43491 12.9853 2.43283 12.9107 2.44523 12.8379C2.47027 12.6908 2.55272 12.5596 2.67446 12.4733C3.82745 11.6688 5.1343 11.1114 6.51296 10.836Z"/>
    </mask>
    <path d="M10.7437 2.81253L11.4786 2.66266L11.3562 2.06253H10.7437V2.81253ZM7.25621 2.81253V2.06253H6.64373L6.52133 2.66266L7.25621 2.81253ZM5.06246 5.00628L4.91258 4.2714L4.31246 4.3938V5.00628H5.06246ZM5.06246 5.49378H4.31246V6.10626L4.91258 6.22865L5.06246 5.49378ZM7.25621 7.68753L6.52133 7.8374L6.64373 8.43753H7.25621V7.68753ZM10.7437 7.68753V8.43753H11.3562L11.4786 7.8374L10.7437 7.68753ZM12.9375 5.49378L13.0873 6.22865L13.6875 6.10626V5.49378H12.9375ZM12.9375 5.00628H13.6875V4.3938L13.0873 4.2714L12.9375 5.00628ZM11.1975 1.68978L11.1902 2.43974L11.2175 2.44001L11.2448 2.43828L11.1975 1.68978ZM10.539 1.68753V2.43753L10.5406 2.43753L10.539 1.68753ZM6.80321 1.68978L6.75538 2.43825L6.782 2.43995L6.80868 2.43976L6.80321 1.68978ZM6.68021 1.69203L6.69348 2.44191L6.7245 2.44136L6.75538 2.43825L6.68021 1.69203ZM5.77946 1.74753L5.87889 2.49091L5.87984 2.49078L5.77946 1.74753ZM3.99746 3.52878L4.74075 3.62888L4.74081 3.62837L3.99746 3.52878ZM3.94196 4.43028L4.68821 4.50516L4.69129 4.47443L4.69184 4.44355L3.94196 4.43028ZM3.93971 4.55253L4.68967 4.55979L4.68994 4.53245L4.68821 4.50516L3.93971 4.55253ZM3.93746 5.21103H4.68746L4.68745 5.20941L3.93746 5.21103ZM3.93971 5.94753L4.68821 5.9949L4.68988 5.96851L4.68969 5.94208L3.93971 5.94753ZM3.94196 6.06978L4.69184 6.05654L4.69129 6.02564L4.68821 5.9949L3.94196 6.06978ZM3.99746 6.97053L4.74084 6.87109L4.74071 6.87015L3.99746 6.97053ZM4.54196 8.20803L5.07287 7.67828L5.0717 7.67712L4.54196 8.20803ZM5.77946 8.75253L5.87984 8.00928L5.87889 8.00915L5.77946 8.75253ZM6.68021 8.80803L6.75538 8.06181L6.7245 8.05869L6.69348 8.05815L6.68021 8.80803ZM6.80321 8.81028L6.8105 8.06031L6.78291 8.06004L6.75538 8.0618L6.80321 8.81028ZM7.46096 8.81253V8.06253L7.45935 8.06253L7.46096 8.81253ZM11.1975 8.81028L11.2448 8.06178L11.2184 8.06011L11.192 8.0603L11.1975 8.81028ZM11.3197 8.80803L11.3065 8.05815L11.2756 8.05869L11.2448 8.06178L11.3197 8.80803ZM12.2205 8.75253L12.121 8.00915L12.1198 8.00931L12.2205 8.75253ZM13.458 8.20803L12.9282 7.67711L12.927 7.67828L13.458 8.20803ZM14.0025 6.97053L14.7459 7.06997L14.7474 7.05753L14.0025 6.97053ZM14.058 6.06978L13.3117 5.9949L13.3082 6.0297L13.308 6.06467L14.058 6.06978ZM14.0602 5.94753L13.3102 5.94026L13.31 5.96761L13.3117 5.9949L14.0602 5.94753ZM14.0625 5.28903L13.3125 5.28903L13.3125 5.29064L14.0625 5.28903ZM14.0602 4.55253L13.3117 4.50516L13.31 4.53154L13.3102 4.55798L14.0602 4.55253ZM14.058 4.43028L13.308 4.43539L13.3082 4.47036L13.3117 4.50516L14.058 4.43028ZM14.0025 3.52953L14.7475 3.44252L14.7458 3.43009L14.0025 3.52953ZM12.2212 1.74753L12.3208 1.00406L12.3082 1.00259L12.2212 1.74753ZM11.3197 1.69203L11.2448 2.43828L11.2797 2.44178L11.3147 2.44201L11.3197 1.69203ZM12.9045 3.82953L12.6386 4.53081L13.7646 4.95774L13.6511 3.75886L12.9045 3.82953ZM12.8872 3.67953L12.1437 3.7777L12.144 3.7802L12.8872 3.67953ZM12.0712 2.86203L12.1728 2.11892L12.1682 2.11833L12.0712 2.86203ZM12.9052 6.67053L13.6518 6.74163L13.7661 5.54204L12.6393 5.96924L12.9052 6.67053ZM11.9212 7.65453L11.2199 7.38864L10.7927 8.5154L11.9923 8.40115L11.9212 7.65453ZM12.0712 7.63803L12.1652 8.38215L12.1725 8.38115L12.0712 7.63803ZM12.8887 6.82053L13.6321 6.92029L13.6328 6.91452L12.8887 6.82053ZM6.08021 7.65453L6.0091 8.40115L7.2087 8.5154L6.78149 7.38864L6.08021 7.65453ZM5.09621 6.67053L5.36209 5.96924L4.23534 5.54204L4.34958 6.74163L5.09621 6.67053ZM5.11346 6.82053L5.85679 6.72077L5.85653 6.71884L5.11346 6.82053ZM5.92946 7.63803L5.8279 8.38117L5.83643 8.38224L5.92946 7.63803ZM5.09621 3.82953L4.35066 3.74793L4.21747 4.96479L5.36209 4.53081L5.09621 3.82953ZM6.08021 2.84553L6.78149 3.11142L7.2087 1.98466L6.0091 2.09891L6.08021 2.84553ZM5.93021 2.86278L6.02996 3.60612L6.03189 3.60585L5.93021 2.86278ZM5.11271 3.67878L4.36961 3.57723L4.36825 3.58719L4.36716 3.59718L5.11271 3.67878ZM7.68746 5.25003H8.43746H7.68746ZM6.51296 10.836L6.3705 10.0997L6.36605 10.1006L6.51296 10.836ZM10.623 11.349L11.0076 10.7052L11.007 10.7048L10.623 11.349ZM11.0917 11.733L11.6523 11.2348L11.6521 11.2346L11.0917 11.733ZM11.526 12.8378L10.7761 12.8506L10.7992 14.2051L11.9349 13.4665L11.526 12.8378ZM11.9587 12.5325L11.5068 11.934L11.5051 11.9352L11.9587 12.5325ZM13.3147 11.5088L12.8709 10.9041L12.8628 10.9102L13.3147 11.5088ZM14.4862 11.125V10.375V11.125ZM15.6577 11.5088L16.1095 10.91L16.1015 10.9041L15.6577 11.5088ZM16.0852 13.551L16.7215 13.9481L16.7215 13.9481L16.0852 13.551ZM14.7975 15.222L15.3065 15.7728L15.3071 15.7722L14.7975 15.222ZM13.068 16.3215L12.7421 15.646L12.742 15.6461L13.068 16.3215ZM11.0452 16.9155L10.9258 16.1751L10.9252 16.1752L11.0452 16.9155ZM6.84371 16.8233L6.99519 16.0887L6.99475 16.0886L6.84371 16.8233ZM4.69496 16.6035L4.69574 15.8535H4.69496V16.6035ZM7.07096 15.7215L6.9195 16.4561L6.9202 16.4562L7.07096 15.7215ZM10.866 15.8048L10.9843 16.5454L10.9858 16.5451L10.866 15.8048ZM12.579 15.3083L12.9048 15.9838L12.9052 15.9836L12.579 15.3083ZM14.0325 14.397L14.5421 14.9473L14.5423 14.9471L14.0325 14.397ZM15.1312 12.9555L15.7673 13.3529L15.7679 13.3519L15.1312 12.9555ZM14.9797 12.4065L14.5271 13.0046L14.5276 13.0049L14.9797 12.4065ZM13.9927 12.4065L14.4448 13.005L14.4461 13.004L13.9927 12.4065ZM12.6375 13.4303L13.0893 14.0289L13.0895 14.0287L12.6375 13.4303ZM10.6042 14.4083L10.7214 15.1491L10.7226 15.1489L10.6042 14.4083ZM10.344 14.4443L10.2557 13.6995L10.2353 13.7019L10.2151 13.7054L10.344 14.4443ZM10.2097 14.4593L10.1694 13.7104L10.1533 13.7112L10.1373 13.7128L10.2097 14.4593ZM8.76071 14.4593L8.83316 13.7128L8.82405 13.7119L8.81492 13.7112L8.76071 14.4593ZM8.86646 13.3395L8.77967 14.0845L8.78693 14.0853L8.79421 14.086L8.86646 13.3395ZM10.1175 13.3373L10.0428 12.591L10.0425 12.591L10.1175 13.3373ZM10.14 13.335L10.2146 14.0813L10.3877 14.064L10.5354 13.9723L10.14 13.335ZM10.2525 12.4815L9.70053 12.9894L9.70536 12.9945L10.2525 12.4815ZM10.0462 12.315L9.66177 12.959L9.66618 12.9616L10.0462 12.315ZM6.72671 11.94L6.58446 11.2036L6.57909 11.2047L6.72671 11.94ZM3.32546 13.3913L2.89673 12.7759L2.89161 12.7795L3.32546 13.3913ZM2.44523 12.8379L1.70586 12.7121L2.44523 12.8379ZM2.67446 12.4733L2.24529 11.8582L2.24061 11.8615L2.67446 12.4733ZM10.7437 2.81253V2.06253H7.25621V2.81253V3.56253H10.7437V2.81253ZM7.25621 2.81253L6.52133 2.66266C6.4405 3.05902 6.24488 3.42287 5.95884 3.70891L6.48917 4.23924L7.0195 4.76957C7.51358 4.2755 7.85145 3.64704 7.99108 2.9624L7.25621 2.81253ZM6.48917 4.23924L5.95884 3.70891C5.6728 3.99496 5.30895 4.19057 4.91258 4.2714L5.06246 5.00628L5.21233 5.74115C5.89696 5.60152 6.52542 5.26365 7.0195 4.76957L6.48917 4.23924ZM5.06246 5.00628H4.31246V5.49378H5.06246H5.81246V5.00628H5.06246ZM5.06246 5.49378L4.91258 6.22865C5.30895 6.30949 5.6728 6.5051 5.95884 6.79114L6.48917 6.26081L7.0195 5.73048C6.52542 5.23641 5.89696 4.89853 5.21233 4.7589L5.06246 5.49378ZM6.48917 6.26081L5.95884 6.79114C6.24488 7.07719 6.4405 7.44103 6.52133 7.8374L7.25621 7.68753L7.99108 7.53766C7.85145 6.85302 7.51358 6.22456 7.0195 5.73048L6.48917 6.26081ZM7.25621 7.68753V8.43753H10.7437V7.68753V6.93753H7.25621V7.68753ZM10.7437 7.68753L11.4786 7.8374C11.5594 7.44103 11.755 7.07719 12.0411 6.79114L11.5107 6.26081L10.9804 5.73048C10.4863 6.22456 10.1485 6.85302 10.0088 7.53766L10.7437 7.68753ZM11.5107 6.26081L12.0411 6.79114C12.3271 6.5051 12.691 6.30949 13.0873 6.22865L12.9375 5.49378L12.7876 4.7589C12.1029 4.89853 11.4745 5.23641 10.9804 5.73048L11.5107 6.26081ZM12.9375 5.49378H13.6875V5.00628H12.9375H12.1875V5.49378H12.9375ZM12.9375 5.00628L13.0873 4.2714C12.691 4.19057 12.3271 3.99496 12.0411 3.70891L11.5107 4.23924L10.9804 4.76957C11.4745 5.26365 12.1029 5.60152 12.7876 5.74115L12.9375 5.00628ZM11.5107 4.23924L12.0411 3.70891C11.755 3.42287 11.5594 3.05902 11.4786 2.66266L10.7437 2.81253L10.0088 2.9624C10.1485 3.64704 10.4863 4.2755 10.9804 4.76957L11.5107 4.23924ZM11.1975 1.68978L11.2047 0.939813C10.9954 0.937781 10.7729 0.937024 10.5373 0.93753L10.539 1.68753L10.5406 2.43753C10.771 2.43703 10.9875 2.43777 11.1902 2.43974L11.1975 1.68978ZM10.539 1.68753V0.937528H7.46096V1.68753V2.43753H10.539V1.68753ZM7.46096 1.68753V0.937528C7.22637 0.937528 7.00528 0.938283 6.79773 0.939798L6.80321 1.68978L6.80868 2.43976C7.01213 2.43827 7.22954 2.43753 7.46096 2.43753V1.68753ZM6.80321 1.68978L6.85103 0.941305C6.76905 0.936066 6.68677 0.937571 6.60503 0.945805L6.68021 1.69203L6.75538 2.43825H6.75538L6.80321 1.68978ZM6.68021 1.69203L6.66693 0.942145C6.31958 0.948293 5.98406 0.963086 5.67907 1.00428L5.77946 1.74753L5.87984 2.49078C6.09685 2.46147 6.36283 2.44776 6.69348 2.44191L6.68021 1.69203ZM5.77946 1.74753L5.68002 1.00415C5.12579 1.07828 4.51564 1.25694 4.01163 1.76095L4.54196 2.29128L5.07229 2.82161C5.25077 2.64312 5.49112 2.54277 5.87889 2.49091L5.77946 1.74753ZM4.54196 2.29128L4.01163 1.76095C3.50707 2.2655 3.32829 2.87541 3.2541 3.42919L3.99746 3.52878L4.74081 3.62837C4.79262 3.24165 4.89284 3.00105 5.07229 2.82161L4.54196 2.29128ZM3.99746 3.52878L3.25417 3.42868C3.21302 3.7342 3.19822 4.06955 3.19207 4.41701L3.94196 4.43028L4.69184 4.44355C4.69769 4.113 4.71139 3.84685 4.74075 3.62888L3.99746 3.52878ZM3.94196 4.43028L3.1957 4.3554C3.18755 4.43664 3.18605 4.51841 3.1912 4.5999L3.93971 4.55253L4.68821 4.50516H4.68821L3.94196 4.43028ZM3.93971 4.55253L3.18974 4.54526C3.18771 4.75506 3.18695 4.97754 3.18746 5.21264L3.93746 5.21103L4.68745 5.20941C4.68696 4.97951 4.6877 4.76299 4.68967 4.55979L3.93971 4.55253ZM3.93746 5.21103H3.18746V5.28903H3.93746H4.68746V5.21103H3.93746ZM3.93746 5.28903H3.18746C3.18746 5.52312 3.18821 5.74445 3.18973 5.95298L3.93971 5.94753L4.68969 5.94208C4.6882 5.7376 4.68746 5.51993 4.68746 5.28903H3.93746ZM3.93971 5.94753L3.1912 5.90016C3.18605 5.98165 3.18755 6.06342 3.1957 6.14466L3.94196 6.06978L4.68821 5.9949L4.68821 5.9949L3.93971 5.94753ZM3.94196 6.06978L3.19207 6.08302C3.19822 6.43121 3.21302 6.76595 3.2542 7.07091L3.99746 6.97053L4.74071 6.87015C4.71139 6.6531 4.69769 6.38785 4.69184 6.05654L3.94196 6.06978ZM3.99746 6.97053L3.25408 7.06996C3.32822 7.62427 3.50695 8.23479 4.01221 8.73894L4.54196 8.20803L5.0717 7.67712C4.89296 7.49876 4.79269 7.25879 4.74084 6.87109L3.99746 6.97053ZM4.54196 8.20803L4.01104 8.73778C4.51519 9.24303 5.12571 9.42176 5.68002 9.49591L5.77946 8.75253L5.87889 8.00915C5.4912 7.95729 5.25122 7.85703 5.07287 7.67828L4.54196 8.20803ZM5.77946 8.75253L5.67907 9.49578C5.98406 9.53697 6.31958 9.55176 6.66693 9.55791L6.68021 8.80803L6.69348 8.05815C6.36283 8.05229 6.09685 8.03859 5.87984 8.00928L5.77946 8.75253ZM6.68021 8.80803L6.60503 9.55425C6.68678 9.56249 6.76906 9.56399 6.85103 9.55875L6.80321 8.81028L6.75538 8.0618L6.75538 8.06181L6.68021 8.80803ZM6.80321 8.81028L6.79591 9.56024C7.00474 9.56227 7.22698 9.56303 7.46256 9.56253L7.46096 8.81253L7.45935 8.06253C7.22893 8.06302 7.01268 8.06228 6.8105 8.06031L6.80321 8.81028ZM7.46096 8.81253V9.56253H10.539V8.81253V8.06253H7.46096V8.81253ZM10.539 8.81253V9.56253C10.7731 9.56253 10.9944 9.56177 11.2029 9.56026L11.1975 8.81028L11.192 8.0603C10.9875 8.06178 10.7699 8.06253 10.539 8.06253V8.81253ZM11.1975 8.81028L11.1501 9.55878C11.2316 9.56394 11.3133 9.56243 11.3946 9.55428L11.3197 8.80803L11.2448 8.06178V8.06178L11.1975 8.81028ZM11.3197 8.80803L11.3329 9.55791C11.6809 9.55177 12.0167 9.53698 12.3211 9.49574L12.2205 8.75253L12.1198 8.00931C11.9038 8.03858 11.638 8.05229 11.3065 8.05815L11.3197 8.80803ZM12.2205 8.75253L12.3199 9.49591C12.8742 9.42176 13.4847 9.24303 13.9889 8.73778L13.458 8.20803L12.927 7.67828C12.7487 7.85703 12.5087 7.95729 12.121 8.00915L12.2205 8.75253ZM13.458 8.20803L13.9877 8.73894C14.493 8.23479 14.6717 7.62427 14.7458 7.06996L14.0025 6.97053L13.2591 6.87109C13.2072 7.25879 13.107 7.49876 12.9282 7.67712L13.458 8.20803ZM14.0025 6.97053L14.7474 7.05753C14.7855 6.73133 14.8057 6.40329 14.8079 6.07489L14.058 6.06978L13.308 6.06467C13.3061 6.33834 13.2893 6.6117 13.2575 6.88353L14.0025 6.97053ZM14.058 6.06978L14.8042 6.14466C14.8124 6.06342 14.8139 5.98165 14.8087 5.90016L14.0602 5.94753L13.3117 5.9949L13.3117 5.9949L14.058 6.06978ZM14.0602 5.94753L14.8102 5.95479C14.8122 5.74499 14.813 5.52251 14.8125 5.28742L14.0625 5.28903L13.3125 5.29064C13.313 5.52054 13.3122 5.73706 13.3102 5.94026L14.0602 5.94753ZM14.0625 5.28903H14.8125V5.21103H14.0625H13.3125V5.28903H14.0625ZM14.0625 5.21103H14.8125C14.8125 4.97693 14.8117 4.7556 14.8102 4.54708L14.0602 4.55253L13.3102 4.55798C13.3117 4.76245 13.3125 4.98012 13.3125 5.21103H14.0625ZM14.0602 4.55253L14.8087 4.5999C14.8139 4.51841 14.8124 4.43664 14.8042 4.3554L14.058 4.43028L13.3117 4.50516H13.3117L14.0602 4.55253ZM14.058 4.43028L14.8079 4.42517C14.8057 4.09676 14.7855 3.76873 14.7474 3.44253L14.0025 3.52953L13.2575 3.61653C13.2893 3.88835 13.3061 4.16172 13.308 4.43539L14.058 4.43028ZM14.0025 3.52953L14.7458 3.43009C14.6717 2.87586 14.493 2.26571 13.989 1.7617L13.4587 2.29203L12.9284 2.82236C13.1069 3.00085 13.2072 3.2412 13.2591 3.62896L14.0025 3.52953ZM13.4587 2.29203L13.989 1.7617C13.4845 1.25714 12.8746 1.07836 12.3208 1.00417L12.2212 1.74753L12.1216 2.49089C12.5083 2.5427 12.7489 2.64291 12.9284 2.82236L13.4587 2.29203ZM12.2212 1.74753L12.3082 1.00259C11.9817 0.964465 11.6534 0.944253 11.3247 0.942045L11.3197 1.69203L11.3147 2.44201C11.5886 2.44385 11.8622 2.46069 12.1342 2.49247L12.2212 1.74753ZM11.3197 1.69203L11.3946 0.945775C11.3133 0.937623 11.2316 0.936118 11.1501 0.941275L11.1975 1.68978L11.2448 2.43828L11.3197 1.69203ZM11.9205 2.84553L11.2192 3.11142C11.3418 3.43498 11.5318 3.72881 11.7765 3.9735L12.3068 3.44317L12.8371 2.91284C12.7426 2.81827 12.6692 2.7047 12.6217 2.57964L11.9205 2.84553ZM12.3068 3.44317L11.7765 3.9735C12.0212 4.21818 12.315 4.40814 12.6386 4.53081L12.9045 3.82953L13.1703 3.12824C13.0453 3.08083 12.9317 3.00741 12.8371 2.91284L12.3068 3.44317ZM12.9045 3.82953L13.6511 3.75886C13.6454 3.69874 13.6385 3.63872 13.6304 3.57886L12.8872 3.67953L12.144 3.7802C12.1494 3.82009 12.154 3.8601 12.1578 3.9002L12.9045 3.82953ZM12.8872 3.67953L13.6308 3.58135C13.5737 3.14935 13.4528 2.815 13.1905 2.55467L12.6622 3.08703L12.1339 3.61939C12.1263 3.61186 12.1172 3.60127 12.1092 3.58926C12.1015 3.57776 12.0994 3.57189 12.1012 3.57617C12.1063 3.58859 12.1259 3.64343 12.1437 3.7777L12.8872 3.67953ZM12.6622 3.08703L13.1905 2.55467C12.9319 2.298 12.6035 2.1778 12.1728 2.11893L12.0712 2.86203L11.9697 3.60512C12.1044 3.62353 12.1597 3.64329 12.1729 3.64874C12.1775 3.65066 12.1722 3.64887 12.1614 3.64166C12.1501 3.63413 12.1404 3.62578 12.1339 3.61939L12.6622 3.08703ZM12.0712 2.86203L12.1682 2.11833C12.1083 2.11052 12.0483 2.10392 11.9882 2.09853L11.9212 2.84553L11.8542 3.59253C11.8943 3.59612 11.9343 3.60053 11.9742 3.60573L12.0712 2.86203ZM12.9052 6.67053L12.6393 5.96924C12.3158 6.09192 12.0219 6.28188 11.7772 6.52656L12.3076 7.05689L12.8379 7.58722C12.9325 7.49265 13.046 7.41923 13.1711 7.37181L12.9052 6.67053ZM12.3076 7.05689L11.7772 6.52656C11.5326 6.77124 11.3426 7.06508 11.2199 7.38864L11.9212 7.65453L12.6225 7.92042C12.6699 7.79536 12.7433 7.68179 12.8379 7.58722L12.3076 7.05689ZM11.9212 7.65453L11.9923 8.40115C12.0517 8.39549 12.1094 8.38917 12.1652 8.38211L12.0712 7.63803L11.9772 6.89394C11.938 6.89889 11.8957 6.90356 11.8501 6.90791L11.9212 7.65453ZM12.0712 7.63803L12.1725 8.38115C12.6011 8.32271 12.934 8.20335 13.194 7.94336L12.6637 7.41303L12.1334 6.8827C12.1411 6.87497 12.1517 6.86595 12.1635 6.85812C12.1747 6.85066 12.1801 6.84887 12.1752 6.85091C12.1614 6.85658 12.1052 6.87645 11.9699 6.89491L12.0712 7.63803ZM12.6637 7.41303L13.194 7.94336C13.4533 7.68409 13.5741 7.35182 13.632 6.92028L12.8887 6.82053L12.1454 6.72077C12.1273 6.85523 12.1076 6.91071 12.1021 6.92389C12.1002 6.92858 12.102 6.92313 12.1094 6.91202C12.1172 6.90039 12.126 6.89006 12.1334 6.8827L12.6637 7.41303ZM12.8887 6.82053L13.6328 6.91452C13.6398 6.85869 13.6462 6.80103 13.6518 6.74163L12.9052 6.67053L12.1586 6.59942C12.1542 6.64503 12.1496 6.68736 12.1446 6.72654L12.8887 6.82053ZM6.08021 7.65453L6.78149 7.38864C6.65882 7.06508 6.46886 6.77124 6.22417 6.52656L5.69384 7.05689L5.16351 7.58722C5.25809 7.68179 5.3315 7.79536 5.37892 7.92042L6.08021 7.65453ZM5.69384 7.05689L6.22417 6.52656C5.97949 6.28188 5.68566 6.09192 5.36209 5.96924L5.09621 6.67053L4.83032 7.37181C4.95537 7.41923 5.06894 7.49265 5.16351 7.58722L5.69384 7.05689ZM5.09621 6.67053L4.34958 6.74163C4.35546 6.80335 4.36236 6.8636 4.37038 6.92221L5.11346 6.82053L5.85653 6.71884C5.85155 6.68246 5.84695 6.6427 5.84283 6.59942L5.09621 6.67053ZM5.11346 6.82053L4.37012 6.92028C4.42769 7.3493 4.54711 7.68434 4.81016 7.94539L5.33846 7.41303L5.86675 6.88067C5.87469 6.88855 5.884 6.8994 5.89212 6.91156C5.89987 6.92317 5.90188 6.92901 5.90001 6.92448C5.89465 6.91146 5.87493 6.85595 5.85679 6.72077L5.11346 6.82053ZM5.33846 7.41303L4.81016 7.94539C5.0688 8.20205 5.39713 8.32225 5.82791 8.38112L5.92946 7.63803L6.03101 6.89493C5.89629 6.87652 5.84097 6.85676 5.8278 6.85132C5.82316 6.84939 5.82846 6.85118 5.8393 6.8584C5.85061 6.86593 5.86031 6.87428 5.86675 6.88067L5.33846 7.41303ZM5.92946 7.63803L5.83643 8.38224C5.89234 8.38922 5.94992 8.39551 6.0091 8.40115L6.08021 7.65453L6.15131 6.90791C6.10549 6.90354 6.06257 6.89883 6.02248 6.89382L5.92946 7.63803ZM5.09621 3.82953L5.36209 4.53081C5.68565 4.40814 5.97949 4.21818 6.22417 3.9735L5.69384 3.44317L5.16351 2.91284C5.06894 3.00741 4.95537 3.08083 4.83032 3.12824L5.09621 3.82953ZM5.69384 3.44317L6.22417 3.9735C6.46886 3.72881 6.65882 3.43498 6.78149 3.11142L6.08021 2.84553L5.37892 2.57964C5.3315 2.7047 5.25808 2.81826 5.16351 2.91284L5.69384 3.44317ZM6.08021 2.84553L6.0091 2.09891C5.94738 2.10478 5.88713 2.11168 5.82852 2.1197L5.93021 2.86278L6.03189 3.60585C6.06828 3.60087 6.10803 3.59627 6.15131 3.59215L6.08021 2.84553ZM5.93021 2.86278L5.83045 2.11944C5.40144 2.17701 5.0664 2.29643 4.80535 2.55948L5.33771 3.08778L5.87006 3.61607C5.86218 3.62402 5.85133 3.63333 5.83918 3.64144C5.82757 3.64919 5.82172 3.6512 5.82625 3.64934C5.83927 3.64397 5.89478 3.62426 6.02996 3.60611L5.93021 2.86278ZM5.33771 3.08778L4.80535 2.55948C4.54868 2.81812 4.42848 3.14645 4.36961 3.57723L5.11271 3.67878L5.8558 3.78033C5.87421 3.64562 5.89397 3.59029 5.89942 3.57713C5.90134 3.57248 5.89955 3.57779 5.89234 3.58862C5.88481 3.59993 5.87645 3.60963 5.87006 3.61607L5.33771 3.08778ZM5.11271 3.67878L4.36716 3.59718L4.35066 3.74793L5.09621 3.82953L5.84175 3.91113L5.85825 3.76038L5.11271 3.67878ZM8.99996 5.06253V4.31253C8.75132 4.31253 8.51286 4.4113 8.33704 4.58712L8.86737 5.11744L9.3977 5.64778C9.29221 5.75327 9.14914 5.81253 8.99996 5.81253V5.06253ZM8.86737 5.11744L8.33704 4.58712C8.16123 4.76293 8.06246 5.00139 8.06246 5.25003H8.81246H9.56246C9.56246 5.39921 9.50319 5.54228 9.3977 5.64778L8.86737 5.11744ZM8.81246 5.25003H8.06246C8.06246 5.49867 8.16123 5.73712 8.33704 5.91294L8.86737 5.38261L9.3977 4.85228C9.50319 4.95777 9.56246 5.10085 9.56246 5.25003H8.81246ZM8.86737 5.38261L8.33704 5.91294C8.51286 6.08876 8.75132 6.18753 8.99996 6.18753V5.43753V4.68753C9.14914 4.68753 9.29221 4.74679 9.3977 4.85228L8.86737 5.38261ZM8.99996 5.43753V6.18753C9.24859 6.18753 9.48705 6.08876 9.66287 5.91294L9.13254 5.38261L8.60221 4.85228C8.7077 4.74679 8.85077 4.68753 8.99996 4.68753V5.43753ZM9.13254 5.38261L9.66287 5.91294C9.83869 5.73712 9.93746 5.49867 9.93746 5.25003H9.18746H8.43746C8.43746 5.10085 8.49672 4.95777 8.60221 4.85228L9.13254 5.38261ZM9.18746 5.25003H9.93746C9.93746 5.00139 9.83869 4.76293 9.66287 4.58712L9.13254 5.11744L8.60221 5.64778C8.49672 5.54228 8.43746 5.39921 8.43746 5.25003H9.18746ZM9.13254 5.11744L9.66287 4.58712C9.48705 4.4113 9.24859 4.31253 8.99996 4.31253V5.06253V5.81253C8.85077 5.81253 8.7077 5.75327 8.60221 5.64778L9.13254 5.11744ZM7.68746 5.25003H8.43746C8.43746 5.10084 8.49672 4.95777 8.60221 4.85228L8.07188 4.32195L7.54155 3.79162C7.15475 4.17841 6.93746 4.70302 6.93746 5.25003L7.68746 5.25003ZM8.07188 4.32195L8.60221 4.85228C8.7077 4.74679 8.85077 4.68753 8.99996 4.68753V3.93753V3.18753C8.45295 3.18753 7.92834 3.40483 7.54155 3.79162L8.07188 4.32195ZM8.99996 3.93753V4.68753C9.14914 4.68753 9.29221 4.74679 9.3977 4.85228L9.92803 4.32195L10.4584 3.79162C10.0716 3.40483 9.54697 3.18753 8.99996 3.18753V3.93753ZM9.92803 4.32195L9.3977 4.85228C9.50319 4.95777 9.56246 5.10084 9.56246 5.25003H10.3125H11.0625C11.0625 4.70302 10.8452 4.17841 10.4584 3.79162L9.92803 4.32195ZM10.3125 5.25003H9.56246C9.56246 5.39921 9.50319 5.54229 9.3977 5.64778L9.92803 6.17811L10.4584 6.70844C10.8452 6.32164 11.0625 5.79704 11.0625 5.25003H10.3125ZM9.92803 6.17811L9.3977 5.64778C9.29222 5.75326 9.14914 5.81253 8.99996 5.81253V6.56253V7.31253C9.54696 7.31253 10.0716 7.09523 10.4584 6.70844L9.92803 6.17811ZM8.99996 6.56253V5.81253C8.85077 5.81253 8.7077 5.75326 8.60221 5.64778L8.07188 6.17811L7.54155 6.70844C7.92834 7.09523 8.45295 7.31253 8.99996 7.31253V6.56253ZM8.07188 6.17811L8.60221 5.64778C8.49672 5.54229 8.43746 5.39921 8.43746 5.25003H7.68746H6.93746C6.93746 5.79704 7.15475 6.32164 7.54155 6.70844L8.07188 6.17811ZM6.51296 10.836L6.65541 11.5724C7.95589 11.3208 9.24374 11.4 10.2389 11.9932L10.623 11.349L11.007 10.7048C9.57667 9.8521 7.86902 9.80977 6.3705 10.0997L6.51296 10.836ZM10.623 11.349L10.2383 11.9929C10.3505 12.0599 10.4495 12.1395 10.5313 12.2315L11.0917 11.733L11.6521 11.2346C11.4564 11.0146 11.2344 10.8406 11.0076 10.7052L10.623 11.349ZM11.0917 11.733L10.5311 12.2313C10.6922 12.4125 10.7723 12.6326 10.7761 12.8506L11.526 12.8378L12.2758 12.8249C12.2661 12.2539 12.0552 11.688 11.6523 11.2348L11.0917 11.733ZM11.526 12.8378L11.9349 13.4665C12.0942 13.3629 12.2533 13.2506 12.4123 13.1298L11.9587 12.5325L11.5051 11.9352C11.3731 12.0355 11.2437 12.1267 11.1171 12.209L11.526 12.8378ZM11.9587 12.5325L12.4106 13.1311L13.7666 12.1073L13.3147 11.5088L12.8628 10.9102L11.5068 11.934L11.9587 12.5325ZM13.3147 11.5088L13.7585 12.1134C13.9695 11.9585 14.2244 11.875 14.4862 11.875L14.4862 11.125V10.375C13.9052 10.375 13.3394 10.5604 12.871 10.9041L13.3147 11.5088ZM14.4862 11.125V11.875C14.748 11.875 15.0029 11.9585 15.214 12.1134L15.6577 11.5088L16.1015 10.9041C15.6331 10.5604 15.0672 10.375 14.4862 10.375V11.125ZM15.6577 11.5088L15.206 12.1075C15.5742 12.3853 15.6596 12.8163 15.4489 13.154L16.0852 13.551L16.7215 13.9481C17.4093 12.8458 16.9937 11.5772 16.1094 10.9101L15.6577 11.5088ZM16.0852 13.551L15.4489 13.1539C15.1326 13.6609 14.6972 14.2926 14.2878 14.6718L14.7975 15.222L15.3071 15.7722C15.8757 15.2455 16.4004 14.4627 16.7215 13.9481L16.0852 13.551ZM14.7975 15.222L14.2884 14.6712C13.8787 15.0499 13.2596 15.3964 12.7421 15.646L13.068 16.3215L13.3938 16.997C13.9398 16.7337 14.7263 16.3091 15.3065 15.7728L14.7975 15.222ZM13.068 16.3215L12.742 15.6461C12.1854 15.9147 11.566 16.0718 10.9258 16.1751L11.0452 16.9155L11.1647 17.656C11.8819 17.5403 12.6575 17.3524 13.3939 16.997L13.068 16.3215ZM11.0452 16.9155L10.9252 16.1752C9.62891 16.3854 8.27793 16.3533 6.99519 16.0887L6.84371 16.8233L6.69222 17.5578C8.15148 17.8588 9.68651 17.8957 11.1653 17.6559L11.0452 16.9155ZM6.84371 16.8233L6.99475 16.0886C6.23828 15.9331 5.46804 15.8543 4.69574 15.8535L4.69496 16.6035L4.69417 17.3535C5.36551 17.3542 6.03507 17.4227 6.69266 17.5579L6.84371 16.8233ZM4.69496 16.6035V15.8535H2.99996V16.6035V17.3535H4.69496V16.6035ZM2.99996 16.6035V15.8535C3.04969 15.8535 3.09738 15.8733 3.13254 15.9084L2.60221 16.4388L2.07188 16.9691C2.31802 17.2152 2.65186 17.3535 2.99996 17.3535V16.6035ZM2.60221 16.4388L3.13254 15.9084C3.1677 15.9436 3.18746 15.9913 3.18746 16.041H2.43746H1.68746C1.68746 16.3891 1.82574 16.723 2.07188 16.9691L2.60221 16.4388ZM2.43746 16.041H3.18746C3.18746 16.0908 3.1677 16.1384 3.13254 16.1736L2.60221 15.6433L2.07188 15.113C1.82574 15.3591 1.68746 15.6929 1.68746 16.041H2.43746ZM2.60221 15.6433L3.13254 16.1736C3.09737 16.2088 3.04968 16.2285 2.99996 16.2285V15.4785V14.7285C2.65186 14.7285 2.31802 14.8668 2.07188 15.113L2.60221 15.6433ZM2.99996 15.4785V16.2285H4.69496V15.4785V14.7285H2.99996V15.4785ZM4.69496 15.4785V16.2285C5.44003 16.2285 6.19405 16.3065 6.9195 16.4561L7.07096 15.7215L7.22242 14.987C6.39837 14.8171 5.54288 14.7285 4.69496 14.7285V15.4785ZM7.07096 15.7215L6.9202 16.4562C8.25845 16.7308 9.63534 16.761 10.9843 16.5454L10.866 15.8048L10.7476 15.0642C9.57723 15.2513 8.38271 15.2251 7.22171 14.9868L7.07096 15.7215ZM10.866 15.8048L10.9858 16.5451C11.6446 16.4385 12.3033 16.274 12.9048 15.9838L12.579 15.3083L12.2531 14.6328C11.8316 14.8361 11.3293 14.97 10.7461 15.0644L10.866 15.8048ZM12.579 15.3083L12.9052 15.9836C13.4298 15.7301 14.0907 15.3653 14.5421 14.9473L14.0325 14.397L13.5229 13.8467C13.2437 14.1053 12.7526 14.3914 12.2527 14.633L12.579 15.3083ZM14.0325 14.397L14.5423 14.9471C14.9916 14.5306 15.4494 13.8618 15.7673 13.3529L15.1312 12.9555L14.4951 12.5582C14.1815 13.0603 13.8129 13.5779 13.5226 13.847L14.0325 14.397ZM15.1312 12.9555L15.7679 13.3519C15.9101 13.1235 15.9765 12.8333 15.9119 12.5324C15.8469 12.2294 15.6647 11.9841 15.4319 11.8081L14.9797 12.4065L14.5276 13.0049C14.528 13.0052 14.4691 12.9579 14.4453 12.8471C14.422 12.7384 14.4476 12.6345 14.4945 12.5592L15.1312 12.9555ZM14.9797 12.4065L15.4323 11.8085C14.8874 11.3962 14.0845 11.3954 13.5393 11.8091L13.9927 12.4065L14.4461 13.004C14.4404 13.0083 14.4403 13.0068 14.4488 13.0041C14.4574 13.0014 14.4703 12.999 14.4859 12.999C14.5015 12.999 14.5146 13.0014 14.5234 13.0042C14.5321 13.0069 14.5324 13.0086 14.5271 13.0046L14.9797 12.4065ZM13.9927 12.4065L13.5406 11.8081L12.1854 12.8318L12.6375 13.4303L13.0895 14.0287L14.4448 13.005L13.9927 12.4065ZM12.6375 13.4303L12.1856 12.8317C11.6653 13.2244 11.122 13.566 10.4858 13.6677L10.6042 14.4083L10.7226 15.1489C11.7379 14.9866 12.5266 14.4536 13.0893 14.0289L12.6375 13.4303ZM10.6042 14.4083L10.487 13.6675C10.4101 13.6797 10.333 13.6903 10.2557 13.6995L10.344 14.4443L10.4322 15.1891C10.5289 15.1776 10.6253 15.1643 10.7214 15.1491L10.6042 14.4083ZM10.344 14.4443L10.2151 13.7054C10.2033 13.7075 10.1882 13.7094 10.1694 13.7104L10.2097 14.4593L10.25 15.2082C10.3242 15.2042 10.3986 15.1961 10.4728 15.1831L10.344 14.4443ZM10.2097 14.4593L10.1373 13.7128C9.70358 13.7549 9.26684 13.7549 8.83316 13.7128L8.76071 14.4593L8.68826 15.2058C9.21831 15.2572 9.7521 15.2572 10.2822 15.2058L10.2097 14.4593ZM8.76071 14.4593L8.81492 13.7112C8.83982 13.713 8.86411 13.7198 8.88637 13.7311L8.54637 14.3996L8.20637 15.0681C8.36214 15.1474 8.53218 15.1947 8.70649 15.2073L8.76071 14.4593ZM8.54637 14.3996L8.88637 13.7311C8.90862 13.7424 8.92839 13.7581 8.94452 13.7772L8.37192 14.2615L7.79933 14.7459C7.9122 14.8794 8.05059 14.9889 8.20637 15.0681L8.54637 14.3996ZM8.37192 14.2615L8.94452 13.7772C8.96064 13.7962 8.9728 13.8183 8.98027 13.8421L8.26466 14.0666L7.54905 14.2911C7.60136 14.4579 7.68645 14.6125 7.79933 14.7459L8.37192 14.2615ZM8.26466 14.0666L8.98027 13.8421C8.98775 13.8659 8.99039 13.891 8.98804 13.9159L8.24136 13.8454L7.49468 13.7748C7.47825 13.9488 7.49673 14.1244 7.54905 14.2911L8.26466 14.0666ZM8.24136 13.8454L8.98804 13.9159C8.98569 13.9407 8.9784 13.9649 8.9666 13.9869L8.30567 13.6324L7.64474 13.2779C7.56213 13.4319 7.51112 13.6009 7.49468 13.7748L8.24136 13.8454ZM8.30567 13.6324L8.9666 13.9869C8.9548 14.0089 8.93873 14.0283 8.91932 14.044L8.44753 13.461L7.97574 12.878C7.83988 12.9879 7.72734 13.1239 7.64474 13.2779L8.30567 13.6324ZM8.44753 13.461L8.91932 14.044C8.8999 14.0597 8.87755 14.0714 8.85358 14.0783L8.64474 13.358L8.4359 12.6377C8.26805 12.6863 8.1116 12.768 7.97574 12.878L8.44753 13.461ZM8.64474 13.358L8.85358 14.0783C8.82961 14.0853 8.80448 14.0874 8.77967 14.0845L8.86646 13.3395L8.95324 12.5946C8.77964 12.5743 8.60375 12.589 8.4359 12.6377L8.64474 13.358ZM8.86646 13.3395L8.79421 14.086C9.25922 14.131 9.72754 14.1302 10.1924 14.0835L10.1175 13.3373L10.0425 12.591C9.67554 12.6279 9.30582 12.6285 8.9387 12.593L8.86646 13.3395ZM10.1175 13.3373L10.1921 14.0836L10.2146 14.0813L10.14 13.335L10.0653 12.5888L10.0428 12.591L10.1175 13.3373ZM10.14 13.335L10.5354 13.9723C10.6997 13.8703 10.8393 13.7332 10.9442 13.5707L10.3141 13.164L9.68394 12.7572C9.69947 12.7332 9.72014 12.7129 9.74448 12.6978L10.14 13.335ZM10.3141 13.164L10.9442 13.5707C11.049 13.4083 11.1165 13.2246 11.1418 13.0329L10.3982 12.9349L9.65467 12.8369C9.65841 12.8085 9.66841 12.7813 9.68394 12.7572L10.3141 13.164ZM10.3982 12.9349L11.1418 13.0329C11.1671 12.8412 11.1495 12.6463 11.0903 12.4623L10.3763 12.6918L9.6623 12.9214C9.65353 12.8942 9.65093 12.8653 9.65467 12.8369L10.3982 12.9349ZM10.3763 12.6918L11.0903 12.4623C11.0311 12.2782 10.9318 12.1096 10.7996 11.9685L10.2525 12.4815L9.70536 12.9945C9.68577 12.9737 9.67106 12.9487 9.6623 12.9214L10.3763 12.6918ZM10.2525 12.4815L10.8044 11.9737C10.6941 11.8538 10.5667 11.751 10.4262 11.6684L10.0462 12.315L9.66618 12.9616C9.67894 12.9691 9.69052 12.9785 9.70055 12.9894L10.2525 12.4815ZM10.0462 12.315L10.4306 11.671C9.32731 11.0124 7.93383 10.943 6.58446 11.2036L6.72671 11.94L6.86895 12.6764C8.02008 12.4541 8.9936 12.5601 9.66178 12.959L10.0462 12.315ZM6.72671 11.94L6.57909 11.2047C5.25681 11.4701 4.00335 12.005 2.89674 12.7759L3.32546 13.3913L3.75417 14.0067C4.69182 13.3535 5.75392 12.9003 6.87432 12.6754L6.72671 11.94ZM3.32546 13.3913L2.89161 12.7795C2.91167 12.7653 2.93434 12.7551 2.95832 12.7497L3.12503 13.4809L3.29173 14.2121C3.4598 14.1738 3.61869 14.1028 3.7593 14.0031L3.32546 13.3913ZM3.12503 13.4809L2.95832 12.7497C2.98231 12.7442 3.00713 12.7435 3.03138 12.7476L2.90556 13.487L2.77974 14.2264C2.94968 14.2553 3.12366 14.2505 3.29173 14.2121L3.12503 13.4809ZM2.90556 13.487L3.03138 12.7476C3.05562 12.7518 3.07882 12.7606 3.09965 12.7737L2.70046 13.4087L2.30127 14.0436C2.44721 14.1353 2.6098 14.1975 2.77974 14.2264L2.90556 13.487ZM2.70046 13.4087L3.09965 12.7737C3.12047 12.7868 3.13851 12.8039 3.15274 12.8239L2.54096 13.2578L1.92917 13.6916C2.02889 13.8322 2.15533 13.9518 2.30127 14.0436L2.70046 13.4087ZM2.54096 13.2578L3.15274 12.8239C3.16697 12.844 3.1771 12.8667 3.18257 12.8906L2.45133 13.0573L1.72009 13.2241C1.75841 13.3921 1.82945 13.551 1.92917 13.6916L2.54096 13.2578ZM2.45133 13.0573L3.18257 12.8906C3.18804 12.9146 3.18873 12.9395 3.1846 12.9637L2.44523 12.8379L1.70586 12.7121C1.67694 12.882 1.68178 13.056 1.72009 13.2241L2.45133 13.0573ZM2.44523 12.8379L3.1846 12.9637C3.17627 13.0127 3.14882 13.0563 3.1083 13.0851L2.67446 12.4733L2.24061 11.8615C1.95662 12.0629 1.76427 12.3688 1.70586 12.7121L2.44523 12.8379ZM2.67446 12.4733L3.10361 13.0884C4.17182 12.3431 5.38258 11.8266 6.65986 11.5715L6.51296 10.836L6.36605 10.1006C4.88602 10.3962 3.48308 10.9946 2.24531 11.8582L2.67446 12.4733Z" fill="currentColor" mask="url(#path-1-inside-1_69_3143)"/>
</svg>
