<svg width="18" height="18" viewBox="0 0 18 18" fill="none" xmlns="http://www.w3.org/2000/svg">
    <path d="M6.75 12.9375C6.60082 12.9375 6.45774 12.9968 6.35225 13.1023C6.24676 13.2077 6.1875 13.3508 6.1875 13.5C6.1875 13.6492 6.24676 13.7923 6.35225 13.8977C6.45774 14.0032 6.60082 14.0625 6.75 14.0625H11.25C11.3992 14.0625 11.5423 14.0032 11.6477 13.8977C11.7532 13.7923 11.8125 13.6492 11.8125 13.5C11.8125 13.3508 11.7532 13.2077 11.6477 13.1023C11.5423 12.9968 11.3992 12.9375 11.25 12.9375H6.75Z" fill="currentColor"/>
    <path fill-rule="evenodd" clip-rule="evenodd" d="M9.00001 0.9375C8.45626 0.9375 7.95976 1.0875 7.41751 1.34025C6.89101 1.5855 6.28351 1.94775 5.52151 2.4015L4.42951 3.05175C3.59026 3.552 2.92201 3.95025 2.41501 4.33125C1.89226 4.725 1.50001 5.13 1.24501 5.66325C0.988507 6.1965 0.919507 6.75525 0.941257 7.407C0.963007 8.03775 1.07326 8.805 1.21126 9.7665L1.43101 11.2905C1.60876 12.528 1.75051 13.5097 1.96126 14.274C2.17876 15.0615 2.48776 15.6877 3.04501 16.167C3.60151 16.647 4.26751 16.8608 5.08201 16.9635C5.87401 17.0625 6.87226 17.0625 8.13151 17.0625H9.86851C11.1285 17.0625 12.126 17.0625 12.918 16.9635C13.7325 16.8608 14.3985 16.647 14.955 16.1677C15.5123 15.6877 15.8213 15.0623 16.0388 14.274C16.2495 13.509 16.3913 12.528 16.569 11.2905L16.788 9.7665C16.9268 8.805 17.037 8.03775 17.058 7.407C17.0805 6.7545 17.0115 6.1965 16.7558 5.66325C16.5 5.13 16.1078 4.725 15.585 4.33125C15.0788 3.95025 14.4098 3.552 13.5705 3.05175L12.4785 2.4015C11.7165 1.94775 11.109 1.5855 10.5833 1.34025C10.0403 1.08675 9.54376 0.9375 9.00001 0.9375ZM6.07201 3.38325C6.86476 2.91075 7.42426 2.5785 7.89301 2.3595C8.34976 2.1465 8.67826 2.0625 9.00001 2.0625C9.32176 2.0625 9.65026 2.1465 10.107 2.3595C10.5758 2.5785 11.1345 2.91075 11.928 3.38325L12.9668 4.002C13.8405 4.5225 14.4563 4.89 14.9093 5.2305C15.3495 5.56275 15.5918 5.83725 15.7418 6.14925C15.891 6.46125 15.9533 6.81975 15.9345 7.36875C15.915 7.93125 15.8145 8.637 15.6705 9.63825L15.4605 11.091C15.276 12.3765 15.144 13.287 14.9543 13.9747C14.769 14.6467 14.5455 15.036 14.2215 15.315C13.8968 15.5948 13.476 15.7597 12.7778 15.8475C12.0645 15.9367 11.1368 15.9375 9.83026 15.9375H8.17051C6.86326 15.9375 5.93551 15.9367 5.22226 15.8475C4.52476 15.7597 4.10326 15.5948 3.77851 15.315C3.45451 15.036 3.23101 14.6467 3.04576 13.9747C2.85601 13.287 2.72326 12.3765 2.53876 11.091L2.32951 9.63825C2.18551 8.637 2.08501 7.9305 2.06551 7.36875C2.04676 6.81975 2.10901 6.46125 2.25901 6.14925C2.40901 5.83725 2.64976 5.56275 3.09151 5.2305C3.54376 4.89 4.15951 4.5225 5.03326 4.002L6.07201 3.38325Z" fill="currentColor"/>
</svg>
