<svg width="32" height="33" viewBox="0 0 32 33" fill="none" xmlns="http://www.w3.org/2000/svg">
    <path d="M20 16.4999C20 16.1463 20.1404 15.8072 20.3905 15.5571C20.6405 15.3071 20.9797 15.1666 21.3333 15.1666C21.6869 15.1666 22.0261 15.3071 22.2761 15.5571C22.5261 15.8072 22.6666 16.1463 22.6666 16.4999C22.6666 16.8535 22.5261 17.1927 22.2761 17.4427C22.0261 17.6928 21.6869 17.8333 21.3333 17.8333C20.9797 17.8333 20.6405 17.6928 20.3905 17.4427C20.1404 17.1927 20 16.8535 20 16.4999ZM14.6666 16.4999C14.6666 16.1463 14.8071 15.8072 15.0572 15.5571C15.3072 15.3071 15.6463 15.1666 16 15.1666C16.3536 15.1666 16.6927 15.3071 16.9428 15.5571C17.1928 15.8072 17.3333 16.1463 17.3333 16.4999C17.3333 16.8535 17.1928 17.1927 16.9428 17.4427C16.6927 17.6928 16.3536 17.8333 16 17.8333C15.6463 17.8333 15.3072 17.6928 15.0572 17.4427C14.8071 17.1927 14.6666 16.8535 14.6666 16.4999ZM10.6666 15.1666C10.313 15.1666 9.97387 15.3071 9.72382 15.5571C9.47377 15.8072 9.33329 16.1463 9.33329 16.4999C9.33329 16.8535 9.47377 17.1927 9.72382 17.4427C9.97387 17.6928 10.313 17.8333 10.6666 17.8333C11.0202 17.8333 11.3594 17.6928 11.6094 17.4427C11.8595 17.1927 12 16.8535 12 16.4999C12 16.1463 11.8595 15.8072 11.6094 15.5571C11.3594 15.3071 11.0202 15.1666 10.6666 15.1666Z" fill="currentColor"/>
</svg>
