<svg width="18" height="18" viewBox="0 0 18 18" fill="none" xmlns="http://www.w3.org/2000/svg">
    <path d="M3 7.60725C3 4.2345 5.6865 1.5 9 1.5C12.3135 1.5 15 4.2345 15 7.60725C15 10.9537 13.0853 14.8597 10.0973 16.2555C9.75381 16.4163 9.37922 16.4997 9 16.4997C8.62078 16.4997 8.24619 16.4163 7.90275 16.2555C4.91475 14.859 3 10.9545 3 7.608V7.60725Z" stroke="currentColor" stroke-width="1.125"/>
    <path d="M9 9.75C10.2426 9.75 11.25 8.74264 11.25 7.5C11.25 6.25736 10.2426 5.25 9 5.25C7.75736 5.25 6.75 6.25736 6.75 7.5C6.75 8.74264 7.75736 9.75 9 9.75Z" stroke="currentColor" stroke-width="1.125"/>
</svg>
