<svg width="32" height="32" viewBox="0 0 32 32" fill="none" xmlns="http://www.w3.org/2000/svg">
    <path d="M12.0734 30.3335C13.896 30.3335 15.3667 30.3335 16.5227 30.1775C17.7227 30.0175 18.7334 29.6708 19.536 28.8695C20.2347 28.1695 20.5894 27.3095 20.7747 26.2988C20.9547 25.3162 20.9894 24.1148 20.9974 22.6722C20.9988 22.4069 20.8948 22.152 20.7082 21.9635C20.5217 21.775 20.2679 21.6682 20.0027 21.6668C19.7375 21.6654 19.4826 21.7694 19.294 21.956C19.1055 22.1425 18.9988 22.3963 18.9974 22.6615C18.9894 24.1188 18.952 25.1522 18.808 25.9375C18.668 26.6922 18.4454 27.1308 18.1214 27.4548C17.752 27.8242 17.2334 28.0642 16.2547 28.1962C15.248 28.3308 13.9134 28.3335 12 28.3335H10.6667C8.75203 28.3335 7.41736 28.3308 6.4107 28.1962C5.43203 28.0642 4.9147 27.8228 4.54403 27.4548C4.17603 27.0855 3.93603 26.5682 3.80403 25.5882C3.66803 24.5828 3.66669 23.2468 3.66669 21.3335L3.66669 10.6668C3.66669 8.7535 3.66803 7.41883 3.80403 6.41083C3.93603 5.43216 4.17603 4.91483 4.54536 4.5455C4.91469 4.17616 5.43203 3.93616 6.4107 3.80416C7.41736 3.6695 8.75203 3.66683 10.6667 3.66683H12C13.9134 3.66683 15.248 3.6695 16.256 3.80416C17.2334 3.93616 17.752 4.1775 18.1214 4.5455C18.4454 4.87083 18.668 5.30816 18.808 6.06283C18.952 6.84816 18.9894 7.88149 18.9974 9.33883C18.9981 9.47015 19.0246 9.60005 19.0755 9.72111C19.1264 9.84216 19.2007 9.95201 19.294 10.0444C19.3874 10.1367 19.498 10.2098 19.6196 10.2594C19.7412 10.309 19.8714 10.3342 20.0027 10.3335C20.134 10.3328 20.2639 10.3062 20.385 10.2553C20.506 10.2044 20.6159 10.1302 20.7082 10.0368C20.8006 9.94348 20.8737 9.83285 20.9233 9.71125C20.9729 9.58966 20.9981 9.45948 20.9974 9.32816C20.9894 7.8855 20.9547 6.68416 20.7747 5.70149C20.588 4.69083 20.2347 3.83083 19.5347 3.13083C18.7334 2.32816 17.7214 1.98416 16.5214 1.8215C15.3667 1.66683 13.896 1.66683 12.0734 1.66683H10.5934C8.76936 1.66683 7.30003 1.66683 6.14403 1.8215C4.94403 1.98416 3.93336 2.32816 3.13069 3.13083C2.32803 3.93349 1.98403 4.94416 1.82136 6.14416C1.66669 7.30016 1.66669 8.77083 1.66669 10.5935L1.66669 21.4068C1.66669 23.2295 1.66669 24.7002 1.82136 25.8562C1.98269 27.0562 2.32803 28.0668 3.13069 28.8695C3.93336 29.6722 4.94403 30.0162 6.14403 30.1775C7.30003 30.3335 8.77069 30.3335 10.5934 30.3335H12.0734Z" fill="currentColor"/>
    <path d="M12 17C11.7348 17 11.4805 16.8946 11.2929 16.7071C11.1054 16.5196 11 16.2652 11 16C11 15.7348 11.1054 15.4804 11.2929 15.2929C11.4805 15.1054 11.7348 15 12 15L26.6307 15L24.016 12.76C23.8145 12.5874 23.6897 12.3419 23.6692 12.0773C23.6487 11.8128 23.7341 11.5509 23.9067 11.3493C24.0793 11.1478 24.3248 11.023 24.5894 11.0025C24.8539 10.982 25.1158 11.0674 25.3174 11.24L29.984 15.24C30.0938 15.3339 30.1819 15.4504 30.2424 15.5816C30.3028 15.7128 30.3341 15.8556 30.3341 16C30.3341 16.1445 30.3028 16.2872 30.2424 16.4184C30.1819 16.5496 30.0938 16.6661 29.984 16.76L25.3174 20.76C25.2176 20.8455 25.1019 20.9104 24.977 20.9512C24.8521 20.9919 24.7204 21.0076 24.5894 20.9975C24.4584 20.9873 24.3307 20.9515 24.2135 20.892C24.0964 20.8325 23.9921 20.7505 23.9067 20.6507C23.8212 20.5509 23.7563 20.4352 23.7155 20.3103C23.6748 20.1854 23.6591 20.0537 23.6692 19.9227C23.6794 19.7917 23.7152 19.664 23.7747 19.5469C23.8342 19.4297 23.9162 19.3255 24.016 19.24L26.6294 17L12 17Z" fill="currentColor"/>
</svg>
