<svg width="38" height="39" viewBox="0 0 38 39" fill="none" xmlns="http://www.w3.org/2000/svg">
    <path d="M7.91669 13.9821C7.91669 8.28524 12.8789 3.66666 19 3.66666C25.1212 3.66666 30.0834 8.28524 30.0834 13.9821C30.0834 19.6346 26.5462 26.2292 21.0267 28.5883C20.3856 28.8601 19.6964 29.0001 19 29.0001C18.3037 29.0001 17.6145 28.8601 16.9734 28.5883C11.4539 26.2292 7.91669 19.633 7.91669 13.9821Z" fill="currentColor" stroke="currentColor" stroke-width="1.125"/>
    <path d="M22.1667 14.75C22.1667 15.5898 21.8331 16.3953 21.2392 16.9892C20.6453 17.583 19.8399 17.9166 19 17.9166C18.1602 17.9166 17.3547 17.583 16.7609 16.9892C16.167 16.3953 15.8334 15.5898 15.8334 14.75C15.8334 13.9101 16.167 13.1047 16.7609 12.5108C17.3547 11.9169 18.1602 11.5833 19 11.5833C19.8399 11.5833 20.6453 11.9169 21.2392 12.5108C21.8331 13.1047 22.1667 13.9101 22.1667 14.75Z" stroke="white" stroke-width="1.125"/>
    <path d="M33.1867 25.0417C34.2412 25.9948 34.8334 27.0715 34.8334 28.2083C34.8334 32.1429 27.7448 35.3333 19 35.3333C10.2553 35.3333 3.16669 32.1429 3.16669 28.2083C3.16669 27.0715 3.75885 25.9948 4.81335 25.0417" stroke="currentColor" stroke-width="1.125" stroke-linecap="round"/>
</svg>
