<svg width="18" height="18" viewBox="0 0 18 18" fill="none" xmlns="http://www.w3.org/2000/svg">
    <path d="M1.5 10.5C1.5 7.67175 1.5 6.25725 2.379 5.379C3.258 4.50075 4.67175 4.5 7.5 4.5H10.5C13.3282 4.5 14.7427 4.5 15.621 5.379C16.4992 6.258 16.5 7.67175 16.5 10.5C16.5 13.3282 16.5 14.7427 15.621 15.621C14.742 16.4992 13.3282 16.5 10.5 16.5H7.5C4.67175 16.5 3.25725 16.5 2.379 15.621C1.50075 14.742 1.5 13.3282 1.5 10.5Z" fill="#808792" stroke="#808792" stroke-width="1.125"/>
    <g opacity="0.5">
        <path d="M12 4.5C12 3.0855 12 2.379 11.5605 1.9395C11.121 1.5 10.4145 1.5 9 1.5C7.5855 1.5 6.879 1.5 6.4395 1.9395C6 2.379 6 3.0855 6 4.5" fill="#808792"/>
        <path d="M12 4.5C12 3.0855 12 2.379 11.5605 1.9395C11.121 1.5 10.4145 1.5 9 1.5C7.5855 1.5 6.879 1.5 6.4395 1.9395C6 2.379 6 3.0855 6 4.5" stroke="#808792" stroke-width="1.125"/>
    </g>
    <g opacity="0.5">
        <path d="M9 12.9998C9.82875 12.9998 10.5 12.4402 10.5 11.7502C10.5 11.0602 9.82875 10.5 9 10.5C8.17125 10.5 7.5 9.9405 7.5 9.24975C7.5 8.55975 8.17125 8.00025 9 8.00025M9 12.9998C8.17125 12.9998 7.5 12.4402 7.5 11.7502L9 12.9998ZM9 12.9998V13.5V12.9998ZM9 7.5V8.00025V7.5ZM9 8.00025C9.82875 8.00025 10.5 8.55975 10.5 9.24975L9 8.00025Z" fill="#808792"/>
        <path d="M9 12.9998C9.82875 12.9998 10.5 12.4402 10.5 11.7502C10.5 11.0602 9.82875 10.5 9 10.5C8.17125 10.5 7.5 9.9405 7.5 9.24975C7.5 8.55975 8.17125 8.00025 9 8.00025M9 12.9998C8.17125 12.9998 7.5 12.4402 7.5 11.7502M9 12.9998V13.5M9 8.00025V7.5M9 8.00025C9.82875 8.00025 10.5 8.55975 10.5 9.24975" stroke="black" stroke-width="1.125" stroke-linecap="round"/>
    </g>
</svg>
