<svg width="18" height="18" viewBox="0 0 18 18" fill="none" xmlns="http://www.w3.org/2000/svg">
    <mask id="path-1-inside-1_39_2833" fill="white">
        <path fill-rule="evenodd" clip-rule="evenodd" d="M9 2.0625C8.75136 2.0625 8.5129 2.16127 8.33709 2.33709C8.16127 2.5129 8.0625 2.75136 8.0625 3C8.0625 3.24864 8.16127 3.4871 8.33709 3.66291C8.5129 3.83873 8.75136 3.9375 9 3.9375C9.24864 3.9375 9.4871 3.83873 9.66291 3.66291C9.83873 3.4871 9.9375 3.24864 9.9375 3C9.9375 2.75136 9.83873 2.5129 9.66291 2.33709C9.4871 2.16127 9.24864 2.0625 9 2.0625ZM6.9375 3C6.9375 2.45299 7.1548 1.92839 7.54159 1.54159C7.92839 1.1548 8.45299 0.9375 9 0.9375C9.54701 0.9375 10.0716 1.1548 10.4584 1.54159C10.8452 1.92839 11.0625 2.45299 11.0625 3C11.0625 3.54701 10.8452 4.07161 10.4584 4.45841C10.0716 4.8452 9.54701 5.0625 9 5.0625C8.45299 5.0625 7.92839 4.8452 7.54159 4.45841C7.1548 4.07161 6.9375 3.54701 6.9375 3ZM12.7425 5.373C13.171 5.27974 13.6189 5.35448 13.9938 5.58181C14.3688 5.80914 14.6422 6.17171 14.7576 6.59473C14.8731 7.01775 14.8218 7.46894 14.6143 7.85523C14.4068 8.24152 14.0589 8.53343 13.6425 8.67075L12.0105 9.2145C11.9253 9.2426 11.8408 9.27261 11.757 9.3045C11.7268 9.32351 11.7026 9.35076 11.6873 9.38304C11.672 9.41533 11.6663 9.45131 11.6707 9.48675L11.6842 9.53175C11.7 9.57825 11.7232 9.639 11.7622 9.74025L12.6975 12.1718C12.8478 12.5639 12.8446 12.9984 12.6884 13.3883C12.5323 13.7781 12.2347 14.0947 11.8553 14.2747C11.4758 14.4548 11.0424 14.4849 10.6417 14.3592C10.2409 14.2335 9.90241 13.9612 9.69375 13.5968L9 12.3848L8.30625 13.5983C8.09779 13.9633 7.75915 14.2361 7.35812 14.3621C6.95709 14.488 6.52327 14.4579 6.14353 14.2776C5.76378 14.0974 5.46614 13.7804 5.31019 13.39C5.15424 12.9996 5.15149 12.5648 5.3025 12.1725L6.23775 9.741C6.26489 9.67218 6.29089 9.60292 6.31575 9.53325L6.32925 9.48825C6.33388 9.45269 6.32821 9.41655 6.31292 9.38412C6.29764 9.35168 6.27337 9.32431 6.243 9.30525L6.1995 9.28725C6.12995 9.26196 6.05994 9.23795 5.9895 9.21525L4.3575 8.67C3.94107 8.53268 3.59322 8.24077 3.38573 7.85448C3.17824 7.46819 3.12692 7.017 3.24237 6.59398C3.35781 6.17096 3.63122 5.80839 4.00618 5.58106C4.38114 5.35373 4.82904 5.27899 5.2575 5.37225L6.68025 5.67675L6.83475 5.70975C8.26264 6.00506 9.73586 6.00506 11.1637 5.70975C11.2013 5.70225 11.2387 5.69475 11.3182 5.67675L12.7425 5.373ZM13.6875 7.047C13.6875 6.67275 13.3425 6.3945 12.978 6.47325L11.553 6.7785L11.3925 6.81225C9.76033 7.14998 8.07516 7.13848 6.44775 6.7785L5.02275 6.47325C4.87557 6.44029 4.72136 6.4653 4.59214 6.54308C4.46292 6.62086 4.36863 6.74543 4.32885 6.89091C4.28908 7.03639 4.30688 7.1916 4.37856 7.32431C4.45023 7.45701 4.57028 7.557 4.71375 7.6035L6.345 8.14725L6.38625 8.16075C6.54 8.21175 6.70125 8.265 6.8325 8.34675C7.275 8.619 7.51425 9.12675 7.44375 9.64125C7.42275 9.795 7.36125 9.9525 7.3035 10.104L7.28775 10.1437L6.3525 12.5753C6.30226 12.7031 6.3024 12.8452 6.35289 12.9729C6.40337 13.1006 6.50044 13.2045 6.62449 13.2634C6.74855 13.3223 6.89034 13.332 7.02124 13.2904C7.15214 13.2489 7.2624 13.1592 7.32975 13.0395L8.51175 10.971C8.56097 10.885 8.63205 10.8135 8.71778 10.7637C8.80352 10.714 8.90088 10.6878 9 10.6878C9.09912 10.6878 9.19648 10.714 9.28222 10.7637C9.36795 10.8135 9.43903 10.885 9.48825 10.971L10.6702 13.0395C10.7376 13.1592 10.8479 13.2489 10.9788 13.2904C11.1097 13.332 11.2515 13.3223 11.3755 13.2634C11.4996 13.2045 11.5966 13.1006 11.6471 12.9729C11.6976 12.8452 11.6977 12.7031 11.6475 12.5753L10.7122 10.1437L10.6972 10.104C10.638 9.9525 10.5772 9.795 10.5562 9.64125C10.5219 9.38947 10.5613 9.13312 10.6699 8.90333C10.7784 8.67354 10.9512 8.48019 11.1675 8.34675C11.2995 8.26425 11.46 8.21175 11.6137 8.16075L11.655 8.14725L13.2863 7.6035C13.4032 7.5648 13.505 7.49017 13.577 7.39025C13.6491 7.29032 13.6877 7.17019 13.6875 7.047ZM3.912 10.6222C3.97903 10.7555 3.99037 10.91 3.94354 11.0516C3.8967 11.1932 3.79552 11.3105 3.66225 11.3775C2.52225 11.9513 2.0625 12.5962 2.0625 13.125C2.0625 13.698 2.6055 14.4037 3.92775 14.9985C5.19675 15.57 6.99 15.9375 9 15.9375C11.01 15.9375 12.8033 15.57 14.0723 14.9985C15.3945 14.4037 15.9375 13.698 15.9375 13.125C15.9375 12.5962 15.4785 11.9513 14.3378 11.3775C14.2712 11.3446 14.2118 11.2989 14.163 11.243C14.1142 11.1871 14.0769 11.1221 14.0534 11.0517C14.0298 10.9813 14.0204 10.907 14.0257 10.833C14.031 10.7589 14.0509 10.6867 14.0843 10.6204C14.1176 10.5541 14.1637 10.495 14.22 10.4466C14.2763 10.3982 14.3416 10.3615 14.4121 10.3384C14.4827 10.3154 14.5571 10.3065 14.6311 10.3124C14.7051 10.3182 14.7772 10.3387 14.8433 10.3725C16.0778 10.9935 17.0625 11.925 17.0625 13.125C17.0625 14.4165 15.9262 15.3975 14.5343 16.0245C13.089 16.6747 11.1315 17.0625 9 17.0625C6.8685 17.0625 4.911 16.6747 3.46575 16.0245C2.07375 15.3975 0.9375 14.4165 0.9375 13.125C0.9375 11.925 1.92225 10.9935 3.1575 10.3725C3.2907 10.3057 3.44495 10.2945 3.58641 10.3413C3.72786 10.3881 3.84496 10.4892 3.912 10.6222Z"/>
    </mask>
    <path fill-rule="evenodd" clip-rule="evenodd" d="M9 2.0625C8.75136 2.0625 8.5129 2.16127 8.33709 2.33709C8.16127 2.5129 8.0625 2.75136 8.0625 3C8.0625 3.24864 8.16127 3.4871 8.33709 3.66291C8.5129 3.83873 8.75136 3.9375 9 3.9375C9.24864 3.9375 9.4871 3.83873 9.66291 3.66291C9.83873 3.4871 9.9375 3.24864 9.9375 3C9.9375 2.75136 9.83873 2.5129 9.66291 2.33709C9.4871 2.16127 9.24864 2.0625 9 2.0625ZM6.9375 3C6.9375 2.45299 7.1548 1.92839 7.54159 1.54159C7.92839 1.1548 8.45299 0.9375 9 0.9375C9.54701 0.9375 10.0716 1.1548 10.4584 1.54159C10.8452 1.92839 11.0625 2.45299 11.0625 3C11.0625 3.54701 10.8452 4.07161 10.4584 4.45841C10.0716 4.8452 9.54701 5.0625 9 5.0625C8.45299 5.0625 7.92839 4.8452 7.54159 4.45841C7.1548 4.07161 6.9375 3.54701 6.9375 3ZM12.7425 5.373C13.171 5.27974 13.6189 5.35448 13.9938 5.58181C14.3688 5.80914 14.6422 6.17171 14.7576 6.59473C14.8731 7.01775 14.8218 7.46894 14.6143 7.85523C14.4068 8.24152 14.0589 8.53343 13.6425 8.67075L12.0105 9.2145C11.9253 9.2426 11.8408 9.27261 11.757 9.3045C11.7268 9.32351 11.7026 9.35076 11.6873 9.38304C11.672 9.41533 11.6663 9.45131 11.6707 9.48675L11.6842 9.53175C11.7 9.57825 11.7232 9.639 11.7622 9.74025L12.6975 12.1718C12.8478 12.5639 12.8446 12.9984 12.6884 13.3883C12.5323 13.7781 12.2347 14.0947 11.8553 14.2747C11.4758 14.4548 11.0424 14.4849 10.6417 14.3592C10.2409 14.2335 9.90241 13.9612 9.69375 13.5968L9 12.3848L8.30625 13.5983C8.09779 13.9633 7.75915 14.2361 7.35812 14.3621C6.95709 14.488 6.52327 14.4579 6.14353 14.2776C5.76378 14.0974 5.46614 13.7804 5.31019 13.39C5.15424 12.9996 5.15149 12.5648 5.3025 12.1725L6.23775 9.741C6.26489 9.67218 6.29089 9.60292 6.31575 9.53325L6.32925 9.48825C6.33388 9.45269 6.32821 9.41655 6.31292 9.38412C6.29764 9.35168 6.27337 9.32431 6.243 9.30525L6.1995 9.28725C6.12995 9.26196 6.05994 9.23795 5.9895 9.21525L4.3575 8.67C3.94107 8.53268 3.59322 8.24077 3.38573 7.85448C3.17824 7.46819 3.12692 7.017 3.24237 6.59398C3.35781 6.17096 3.63122 5.80839 4.00618 5.58106C4.38114 5.35373 4.82904 5.27899 5.2575 5.37225L6.68025 5.67675L6.83475 5.70975C8.26264 6.00506 9.73586 6.00506 11.1637 5.70975C11.2013 5.70225 11.2387 5.69475 11.3182 5.67675L12.7425 5.373ZM13.6875 7.047C13.6875 6.67275 13.3425 6.3945 12.978 6.47325L11.553 6.7785L11.3925 6.81225C9.76033 7.14998 8.07516 7.13848 6.44775 6.7785L5.02275 6.47325C4.87557 6.44029 4.72136 6.4653 4.59214 6.54308C4.46292 6.62086 4.36863 6.74543 4.32885 6.89091C4.28908 7.03639 4.30688 7.1916 4.37856 7.32431C4.45023 7.45701 4.57028 7.557 4.71375 7.6035L6.345 8.14725L6.38625 8.16075C6.54 8.21175 6.70125 8.265 6.8325 8.34675C7.275 8.619 7.51425 9.12675 7.44375 9.64125C7.42275 9.795 7.36125 9.9525 7.3035 10.104L7.28775 10.1437L6.3525 12.5753C6.30226 12.7031 6.3024 12.8452 6.35289 12.9729C6.40337 13.1006 6.50044 13.2045 6.62449 13.2634C6.74855 13.3223 6.89034 13.332 7.02124 13.2904C7.15214 13.2489 7.2624 13.1592 7.32975 13.0395L8.51175 10.971C8.56097 10.885 8.63205 10.8135 8.71778 10.7637C8.80352 10.714 8.90088 10.6878 9 10.6878C9.09912 10.6878 9.19648 10.714 9.28222 10.7637C9.36795 10.8135 9.43903 10.885 9.48825 10.971L10.6702 13.0395C10.7376 13.1592 10.8479 13.2489 10.9788 13.2904C11.1097 13.332 11.2515 13.3223 11.3755 13.2634C11.4996 13.2045 11.5966 13.1006 11.6471 12.9729C11.6976 12.8452 11.6977 12.7031 11.6475 12.5753L10.7122 10.1437L10.6972 10.104C10.638 9.9525 10.5772 9.795 10.5562 9.64125C10.5219 9.38947 10.5613 9.13312 10.6699 8.90333C10.7784 8.67354 10.9512 8.48019 11.1675 8.34675C11.2995 8.26425 11.46 8.21175 11.6137 8.16075L11.655 8.14725L13.2863 7.6035C13.4032 7.5648 13.505 7.49017 13.577 7.39025C13.6491 7.29032 13.6877 7.17019 13.6875 7.047ZM3.912 10.6222C3.97903 10.7555 3.99037 10.91 3.94354 11.0516C3.8967 11.1932 3.79552 11.3105 3.66225 11.3775C2.52225 11.9513 2.0625 12.5962 2.0625 13.125C2.0625 13.698 2.6055 14.4037 3.92775 14.9985C5.19675 15.57 6.99 15.9375 9 15.9375C11.01 15.9375 12.8033 15.57 14.0723 14.9985C15.3945 14.4037 15.9375 13.698 15.9375 13.125C15.9375 12.5962 15.4785 11.9513 14.3378 11.3775C14.2712 11.3446 14.2118 11.2989 14.163 11.243C14.1142 11.1871 14.0769 11.1221 14.0534 11.0517C14.0298 10.9813 14.0204 10.907 14.0257 10.833C14.031 10.7589 14.0509 10.6867 14.0843 10.6204C14.1176 10.5541 14.1637 10.495 14.22 10.4466C14.2763 10.3982 14.3416 10.3615 14.4121 10.3384C14.4827 10.3154 14.5571 10.3065 14.6311 10.3124C14.7051 10.3182 14.7772 10.3387 14.8433 10.3725C16.0778 10.9935 17.0625 11.925 17.0625 13.125C17.0625 14.4165 15.9262 15.3975 14.5343 16.0245C13.089 16.6747 11.1315 17.0625 9 17.0625C6.8685 17.0625 4.911 16.6747 3.46575 16.0245C2.07375 15.3975 0.9375 14.4165 0.9375 13.125C0.9375 11.925 1.92225 10.9935 3.1575 10.3725C3.2907 10.3057 3.44495 10.2945 3.58641 10.3413C3.72786 10.3881 3.84496 10.4892 3.912 10.6222Z" fill="black" stroke="currentColor" stroke-width="1.5" mask="url(#path-1-inside-1_39_2833)"/>
</svg>
