<svg width="18" height="18" viewBox="0 0 18 18" fill="none" xmlns="http://www.w3.org/2000/svg">
    <path d="M3.81055 2.57715C4.55284 1.7956 5.79722 1.92331 6.43359 2.82324L7.37793 4.16113C7.88918 4.8842 7.83875 5.87861 7.24414 6.50586L7.06055 6.69922L7.00293 6.75977L6.97754 6.83496C6.94532 6.92428 6.91712 7.07393 6.94922 7.29492L6.9502 7.2959C7.0165 7.74594 7.33761 8.50854 8.43359 9.66211C9.51081 10.7965 10.2258 11.1377 10.6494 11.2148V11.2168C10.6555 11.2182 10.6618 11.2185 10.668 11.2197C10.6693 11.2199 10.6706 11.2205 10.6719 11.2207V11.2197C10.7985 11.2449 10.9292 11.2417 11.0537 11.207L11.1533 11.1787L11.2246 11.1035L11.5312 10.7812C12.0312 10.2553 12.7924 10.1229 13.4443 10.4297L13.5732 10.4961L15.0059 11.3213C16.0284 11.9099 16.2572 13.3506 15.4521 14.1982L14.3867 15.3193C14.0954 15.6265 13.7196 15.8652 13.2754 15.9092C12.0442 16.0306 9.14492 15.8957 6.02832 12.7949L5.72559 12.4854L5.44824 12.1865C2.65539 9.11862 2.13296 6.49553 2.06543 5.23438C2.0356 4.67796 2.28161 4.18673 2.63281 3.81641L3.81055 2.57715ZM6.12695 3.04004C5.61509 2.31623 4.6471 2.24018 4.08203 2.83496L2.9043 4.07422L2.90332 4.0752C2.60607 4.39046 2.41663 4.78569 2.43945 5.21289V5.21387C2.50396 6.4315 3.02608 9.0991 5.99707 12.2266C9.13639 15.5327 12.0659 15.6514 13.2393 15.5361C13.5672 15.5037 13.8648 15.3245 14.1152 15.0605L14.1143 15.0596L15.1797 13.9395C15.8117 13.2742 15.639 12.1183 14.8184 11.6465H14.8193L13.3867 10.8213H13.3857C12.8545 10.516 12.2134 10.607 11.8027 11.04L11.7188 11.127C11.6827 11.0927 11.6418 11.0535 11.5957 11.0098L11.0791 11.5537L11.1064 11.5801C10.9772 11.6108 10.8135 11.6234 10.6123 11.5908C10.0729 11.5036 9.28094 11.0992 8.16211 9.9209C7.18122 8.88865 6.76684 8.12362 6.62402 7.57324L6.5791 7.34961L6.56055 7.15137C6.55695 7.02776 6.56889 6.9216 6.58887 6.83203C6.60084 6.84337 6.6132 6.85508 6.62598 6.86719L7.14258 6.32227C7.12239 6.30314 7.10317 6.28482 7.08496 6.26758L7.0127 6.2002C7.43694 5.70918 7.47385 4.94605 7.07227 4.37793L6.12695 3.04004Z" fill="currentColor" stroke="currentColor" stroke-width="0.75"/>
    <path d="M10.5414 1.31763C10.5504 1.31935 10.5605 1.32151 10.5707 1.32349C10.5927 1.32776 10.61 1.33127 10.6185 1.33325L10.6263 1.33423C10.6778 1.34499 10.7553 1.3638 10.8617 1.3938V1.39478C11.0685 1.45537 11.3633 1.55708 11.7191 1.71997V1.71899C12.4296 2.04505 13.3848 2.62077 14.3822 3.61743C15.255 4.49028 15.8048 5.33136 16.1469 6.00415L16.2806 6.28149C16.4433 6.63689 16.5432 6.93026 16.6039 7.13794L16.682 7.44946L16.683 7.4563V7.45825C16.6915 7.50951 16.6796 7.56217 16.6498 7.60474C16.6203 7.64669 16.575 7.67396 16.5248 7.68384C16.4776 7.69023 16.4299 7.68029 16.391 7.65259C16.3507 7.62368 16.323 7.57943 16.3148 7.53052L16.3138 7.52271L16.2816 7.37915C16.2698 7.33133 16.2571 7.28367 16.2426 7.23657C16.1609 6.96284 16.0591 6.6949 15.9388 6.43579C15.6294 5.7619 15.0785 4.84397 14.1166 3.88208C13.1538 2.91939 12.2357 2.36908 11.5609 2.05981C11.3016 1.93955 11.0341 1.83773 10.7601 1.7561L10.7543 1.75513L10.4965 1.6897L10.4769 1.68579L10.4066 1.65942C10.3852 1.64624 10.366 1.62933 10.351 1.60864C10.3213 1.56786 10.3089 1.51694 10.3158 1.46704C10.32 1.44387 10.3288 1.42165 10.3412 1.40161C10.3541 1.38074 10.3711 1.36225 10.391 1.3479C10.4109 1.33362 10.4335 1.32324 10.4574 1.31763C10.4813 1.31201 10.5064 1.31172 10.5306 1.31567V1.3147C10.5343 1.3154 10.5379 1.31696 10.5414 1.31763Z" fill="#808792" stroke="currentColor" stroke-width="0.75"/>
    <path fill-rule="evenodd" clip-rule="evenodd" d="M10.1145 3.99742C10.1347 3.92635 10.1688 3.85996 10.2147 3.80204C10.2605 3.74413 10.3174 3.69582 10.382 3.65988C10.4465 3.62394 10.5175 3.60107 10.5909 3.59259C10.6643 3.5841 10.7387 3.59016 10.8098 3.61042L10.6553 4.15117L10.8105 3.61117H10.812L10.815 3.61192L10.8203 3.61342L10.8353 3.61867C10.8468 3.62167 10.861 3.62642 10.878 3.63292C10.9115 3.64442 10.9558 3.66192 11.0108 3.68542C11.1195 3.73192 11.2688 3.80392 11.4525 3.91267C11.82 4.13017 12.3203 4.49017 12.909 5.07967C13.4978 5.66842 13.8593 6.16942 14.076 6.53617C14.1848 6.71992 14.2568 6.86917 14.304 6.97867C14.3287 7.03597 14.3509 7.09427 14.3708 7.15342L14.3753 7.16842L14.3768 7.17442L14.3775 7.17667V7.17817L13.8375 7.33342L14.3783 7.17892C14.4202 7.32214 14.4036 7.47616 14.332 7.60711C14.2604 7.73806 14.1397 7.8352 13.9965 7.87717C13.8533 7.91914 13.6993 7.9025 13.5683 7.83091C13.4374 7.75932 13.3402 7.63864 13.2983 7.49542L13.296 7.48792L13.2698 7.42192C13.2219 7.31459 13.1678 7.21016 13.1078 7.10917C12.9405 6.82717 12.639 6.39967 12.114 5.87467C11.589 5.34967 11.1615 5.04817 10.8795 4.88092C10.7581 4.80963 10.6318 4.74697 10.5015 4.69342L10.494 4.69042C10.3522 4.64798 10.2328 4.55135 10.1618 4.42149C10.0907 4.29162 10.0738 4.13973 10.1145 3.99742Z" fill="currentColor"/>
</svg>
