<svg width="25" height="24" viewBox="0 0 25 24" fill="none" xmlns="http://www.w3.org/2000/svg">
    <path fill-rule="evenodd" clip-rule="evenodd" d="M20 6.25C20.1989 6.25 20.3896 6.32902 20.5303 6.46967C20.6709 6.61032 20.75 6.80109 20.75 7C20.75 9.244 19.7979 10.72 18.563 11.609C17.367 12.47 15.953 12.75 15 12.75H6.80995L10.53 16.47C10.6036 16.5387 10.6627 16.6215 10.7037 16.7135C10.7447 16.8055 10.7668 16.9048 10.7685 17.0055C10.7703 17.1062 10.7518 17.2062 10.7141 17.2996C10.6764 17.393 10.6202 17.4778 10.549 17.549C10.4778 17.6203 10.3929 17.6764 10.2995 17.7141C10.2062 17.7518 10.1061 17.7704 10.0054 17.7686C9.90473 17.7668 9.80541 17.7448 9.71341 17.7038C9.62141 17.6628 9.53861 17.6037 9.46995 17.53L4.46995 12.53C4.3295 12.3894 4.25061 12.1988 4.25061 12C4.25061 11.8013 4.3295 11.6106 4.46995 11.47L9.46995 6.47C9.53861 6.39631 9.62141 6.33721 9.71341 6.29622C9.80541 6.25523 9.90473 6.23319 10.0054 6.23141C10.1061 6.22963 10.2062 6.24816 10.2995 6.28588C10.3929 6.3236 10.4778 6.37974 10.549 6.45096C10.6202 6.52218 10.6764 6.60702 10.7141 6.7004C10.7518 6.79379 10.7703 6.89382 10.7685 6.99452C10.7668 7.09523 10.7447 7.19454 10.7037 7.28654C10.6627 7.37854 10.6036 7.46134 10.53 7.53L6.80995 11.25H15C15.713 11.25 16.8 11.03 17.687 10.391C18.535 9.781 19.25 8.756 19.25 7C19.25 6.80109 19.329 6.61032 19.4696 6.46967C19.6103 6.32902 19.801 6.25 20 6.25Z" fill="currentColor"/>
</svg>
