<svg width="25" height="24" viewBox="0 0 25 24" fill="none" xmlns="http://www.w3.org/2000/svg">
    <path fill-rule="evenodd" clip-rule="evenodd" d="M2.48703 2.95297C2.85564 2.60215 3.32078 2.36965 3.82262 2.28535C4.32445 2.20106 4.84003 2.26884 5.30303 2.47997L21.813 9.84297C22.2387 10.0207 22.6023 10.3204 22.858 10.7043C23.1138 11.0882 23.2502 11.5392 23.2502 12.0005C23.2502 12.4618 23.1138 12.9127 22.858 13.2967C22.6023 13.6806 22.2387 13.9802 21.813 14.158L5.30203 21.52C4.83903 21.7311 4.32345 21.7989 3.82162 21.7146C3.31978 21.6303 2.85464 21.3978 2.48603 21.047C1.79603 20.388 1.47703 19.312 2.02803 18.28L5.18003 12.376C5.24252 12.2605 5.27525 12.1313 5.27525 12C5.27525 11.8687 5.24252 11.7394 5.18003 11.624L2.03003 5.71997C1.48003 4.68897 1.79803 3.61197 2.48803 2.95297M3.52403 4.03797C3.25003 4.29997 3.16403 4.65797 3.35403 5.01397L2.69203 5.36697L3.35303 5.01397L6.50603 10.918C6.86903 11.598 6.86903 12.403 6.50603 13.083L3.35303 18.987C3.16303 19.343 3.25003 19.701 3.52403 19.963C3.80403 20.23 4.24403 20.35 4.69303 20.15L21.203 12.788C21.933 12.462 21.933 11.538 21.203 11.213L4.69203 3.84997C4.50088 3.76008 4.28706 3.72994 4.07851 3.76348C3.86995 3.79702 3.67737 3.89268 3.52403 4.03797Z" fill="currentColor"/>
</svg>
