<svg width="32" height="32" viewBox="0 0 32 32" fill="none" xmlns="http://www.w3.org/2000/svg">
    <path fill-rule="evenodd" clip-rule="evenodd" d="M16 11C14.6739 11 13.4021 11.5268 12.4645 12.4645C11.5268 13.4021 11 14.6739 11 16C11 17.3261 11.5268 18.5979 12.4645 19.5355C13.4021 20.4732 14.6739 21 16 21C17.3261 21 18.5979 20.4732 19.5355 19.5355C20.4732 18.5979 21 17.3261 21 16C21 14.6739 20.4732 13.4021 19.5355 12.4645C18.5979 11.5268 17.3261 11 16 11ZM13 16C13 15.2044 13.3161 14.4413 13.8787 13.8787C14.4413 13.3161 15.2044 13 16 13C16.7956 13 17.5587 13.3161 18.1213 13.8787C18.6839 14.4413 19 15.2044 19 16C19 16.7956 18.6839 17.5587 18.1213 18.1213C17.5587 18.6839 16.7956 19 16 19C15.2044 19 14.4413 18.6839 13.8787 18.1213C13.3161 17.5587 13 16.7956 13 16Z" fill="currentColor"/>
    <path fill-rule="evenodd" clip-rule="evenodd" d="M15.9667 1.6665C15.3734 1.6665 14.8787 1.6665 14.4734 1.69317C14.059 1.70986 13.6503 1.79548 13.264 1.9465C12.819 2.13062 12.4147 2.4006 12.074 2.74102C11.7334 3.08144 11.4631 3.48563 11.2787 3.9305C11.0854 4.39717 11.0334 4.8905 11.012 5.4265C11.0096 5.62248 10.9576 5.81466 10.8609 5.9851C10.7641 6.15554 10.6258 6.29868 10.4587 6.40117C10.2865 6.49493 10.0933 6.5435 9.89717 6.54233C9.70107 6.54117 9.50847 6.49031 9.33736 6.3945C8.86269 6.14384 8.40936 5.9425 7.90803 5.87584C7.43062 5.81304 6.94552 5.84489 6.48042 5.96957C6.01532 6.09426 5.57934 6.30933 5.19736 6.6025C4.87388 6.86181 4.59586 7.17318 4.37469 7.52384C4.14803 7.8625 3.90003 8.2905 3.60403 8.80384L3.57069 8.8625C3.27336 9.37584 3.02669 9.80384 2.84803 10.1692C2.66136 10.5505 2.51469 10.9265 2.46136 11.3425C2.33416 12.3065 2.59506 13.2815 3.18669 14.0532C3.49469 14.4545 3.89603 14.7465 4.34936 15.0318C4.5182 15.132 4.65888 15.2733 4.75822 15.4426C4.85756 15.6119 4.91232 15.8036 4.91736 15.9998C4.91232 16.1961 4.85756 16.3878 4.75822 16.5571C4.65888 16.7264 4.5182 16.8677 4.34936 16.9678C3.89603 17.2532 3.49603 17.5452 3.18669 17.9465C2.89351 18.3285 2.67844 18.7645 2.55376 19.2296C2.42908 19.6947 2.39723 20.1798 2.46003 20.6572C2.51469 21.0732 2.66003 21.4492 2.84669 21.8305C3.02669 22.1958 3.27336 22.6238 3.57069 23.1372L3.60403 23.1958C3.90003 23.7092 4.14803 24.1372 4.37469 24.4758C4.61069 24.8265 4.86403 25.1425 5.19736 25.3958C5.57924 25.6893 6.01518 25.9046 6.48028 26.0295C6.94538 26.1544 7.43053 26.1864 7.90803 26.1238C8.40936 26.0572 8.86269 25.8572 9.33736 25.6052C9.5083 25.5096 9.70066 25.4589 9.8965 25.4577C10.0923 25.4565 10.2853 25.505 10.4574 25.5985C10.6258 25.6997 10.7654 25.8425 10.8627 26.0132C10.9601 26.1839 11.012 26.3767 11.0134 26.5732C11.0334 27.1092 11.0854 27.6025 11.28 28.0692C11.4641 28.5142 11.7341 28.9185 12.0745 29.2592C12.415 29.5998 12.8191 29.8701 13.264 30.0545C13.6507 30.2145 14.0507 30.2772 14.4734 30.3052C14.8787 30.3332 15.3734 30.3332 15.9667 30.3332H16.0334C16.6267 30.3332 17.1214 30.3332 17.5267 30.3065C17.9507 30.2772 18.3494 30.2145 18.736 30.0532C19.181 29.8691 19.5854 29.5991 19.926 29.2587C20.2667 28.9182 20.5369 28.514 20.7214 28.0692C20.9147 27.6025 20.9667 27.1092 20.988 26.5732C20.9902 26.377 21.0421 26.1845 21.1388 26.0138C21.2356 25.8431 21.3741 25.6998 21.5414 25.5972C21.7137 25.5036 21.907 25.4553 22.1031 25.4567C22.2992 25.4581 22.4917 25.5092 22.6627 25.6052C23.1374 25.8558 23.5907 26.0572 24.092 26.1225C25.056 26.2497 26.031 25.9888 26.8027 25.3972C27.136 25.1412 27.3894 24.8265 27.6254 24.4758C27.852 24.1372 28.1 23.7092 28.396 23.1958L28.4294 23.1372C28.7267 22.6238 28.9734 22.1958 29.152 21.8305C29.3387 21.4492 29.4854 21.0718 29.5387 20.6572C29.6659 19.6932 29.405 18.7181 28.8134 17.9465C28.5054 17.5452 28.104 17.2532 27.6507 16.9678C27.4818 16.8677 27.3412 16.7264 27.2418 16.5571C27.1425 16.3878 27.0877 16.1961 27.0827 15.9998C27.0827 15.6292 27.2854 15.2612 27.6507 15.0318C28.104 14.7465 28.504 14.4545 28.8134 14.0532C29.1065 13.6712 29.3216 13.2352 29.4463 12.7701C29.571 12.305 29.6028 11.8199 29.54 11.3425C29.4772 10.9326 29.3465 10.5361 29.1534 10.1692C28.9256 9.72621 28.6842 9.29044 28.4294 8.8625L28.396 8.80384C28.1525 8.36928 27.8955 7.9424 27.6254 7.52384C27.4041 7.17365 27.1261 6.86274 26.8027 6.60384C26.4208 6.31043 25.9849 6.09512 25.5198 5.97021C25.0547 5.84529 24.5695 5.81323 24.092 5.87584C23.5907 5.9425 23.1374 6.1425 22.6627 6.3945C22.4917 6.49007 22.2994 6.5408 22.1035 6.54197C21.9077 6.54313 21.7148 6.4947 21.5427 6.40117C21.3751 6.29901 21.2362 6.156 21.139 5.98554C21.0418 5.81508 20.9894 5.62273 20.9867 5.4265C20.9667 4.8905 20.9147 4.39717 20.72 3.9305C20.5359 3.4855 20.2659 3.08113 19.9255 2.74049C19.5851 2.39984 19.1809 2.12959 18.736 1.94517C18.3494 1.78517 17.9494 1.7225 17.5267 1.6945C17.1214 1.6665 16.6267 1.6665 16.0334 1.6665H15.9667ZM14.0294 3.79317C14.132 3.7505 14.288 3.71184 14.6094 3.68917C14.9387 3.6665 15.3654 3.6665 16 3.6665C16.6347 3.6665 17.0614 3.6665 17.3907 3.68917C17.712 3.71184 17.868 3.7505 17.9707 3.79317C18.38 3.9625 18.704 4.2865 18.8734 4.69584C18.9267 4.82384 18.9707 5.02517 18.988 5.50117C19.028 6.55717 19.5734 7.5745 20.5414 8.13317C21.5094 8.69184 22.6627 8.65584 23.5974 8.1625C24.0187 7.93984 24.2147 7.87717 24.3534 7.85984C24.7914 7.80195 25.2346 7.92041 25.5854 8.18917C25.6734 8.25717 25.7854 8.37317 25.9654 8.63984C26.1507 8.9145 26.364 9.28384 26.6814 9.83317C26.9987 10.3825 27.2107 10.7532 27.356 11.0492C27.4987 11.3385 27.5427 11.4932 27.556 11.6038C27.6139 12.0419 27.4955 12.4851 27.2267 12.8358C27.1414 12.9465 26.9894 13.0852 26.5867 13.3385C25.6907 13.9012 25.0827 14.8825 25.0827 15.9998C25.0827 17.1172 25.6907 18.0985 26.5867 18.6612C26.9894 18.9145 27.1414 19.0532 27.2267 19.1638C27.496 19.5145 27.6134 19.9572 27.556 20.3958C27.5427 20.5065 27.4974 20.6625 27.356 20.9505C27.2107 21.2478 26.9987 21.6172 26.6814 22.1665C26.364 22.7158 26.1494 23.0852 25.9654 23.3598C25.7854 23.6265 25.6734 23.7425 25.5854 23.8105C25.2346 24.0793 24.7914 24.1977 24.3534 24.1398C24.2147 24.1225 24.02 24.0598 23.5974 23.8372C22.664 23.3438 21.5094 23.3065 20.5414 23.8652C19.5734 24.4238 19.028 25.4425 18.988 26.4985C18.9707 26.9745 18.9267 27.1758 18.8734 27.3038C18.7896 27.5062 18.6668 27.6901 18.5119 27.845C18.357 27.9999 18.1731 28.1227 17.9707 28.2065C17.868 28.2492 17.712 28.2878 17.3907 28.3105C17.0614 28.3332 16.6347 28.3332 16 28.3332C15.3654 28.3332 14.9387 28.3332 14.6094 28.3105C14.288 28.2878 14.132 28.2492 14.0294 28.2065C13.827 28.1227 13.6431 27.9999 13.4882 27.845C13.3333 27.6901 13.2105 27.5062 13.1267 27.3038C13.0734 27.1758 13.0294 26.9745 13.012 26.4985C12.972 25.4425 12.4267 24.4252 11.4587 23.8665C10.4907 23.3078 9.33736 23.3438 8.40269 23.8372C7.98136 24.0598 7.78536 24.1225 7.64669 24.1398C7.2086 24.1977 6.76546 24.0793 6.41469 23.8105C6.32669 23.7425 6.21469 23.6265 6.03469 23.3598C5.78387 22.9695 5.54509 22.5715 5.31869 22.1665C5.00136 21.6172 4.78936 21.2465 4.64403 20.9505C4.50136 20.6612 4.45736 20.5065 4.44403 20.3958C4.38614 19.9578 4.5046 19.5146 4.77336 19.1638C4.85869 19.0532 5.01069 18.9145 5.41336 18.6612C6.30936 18.0985 6.91736 17.1172 6.91736 15.9998C6.91736 14.8825 6.30936 13.9012 5.41336 13.3385C5.01069 13.0852 4.85869 12.9465 4.77336 12.8358C4.5046 12.4851 4.38614 12.0419 4.44403 11.6038C4.45736 11.4932 4.50269 11.3372 4.64403 11.0492C4.78936 10.7518 5.00136 10.3825 5.31869 9.83317C5.63603 9.28384 5.85069 8.9145 6.03469 8.63984C6.21469 8.37317 6.32669 8.25717 6.41469 8.18917C6.76546 7.92041 7.2086 7.80195 7.64669 7.85984C7.78536 7.87717 7.98003 7.93984 8.40269 8.1625C9.33603 8.65584 10.4907 8.69317 11.4587 8.13317C12.4267 7.5745 12.972 6.55717 13.012 5.50117C13.0294 5.02517 13.0734 4.82384 13.1267 4.69584C13.296 4.2865 13.62 3.9625 14.0294 3.79317Z" fill="currentColor"/>
</svg>
