<svg width="18" height="18" viewBox="0 0 18 18" fill="none" xmlns="http://www.w3.org/2000/svg">
    <path d="M10.8525 5.6475C10.904 5.70277 10.9661 5.74709 11.0351 5.77784C11.1041 5.80858 11.1786 5.82511 11.2541 5.82644C11.3296 5.82778 11.4047 5.81388 11.4747 5.78559C11.5447 5.7573 11.6084 5.71519 11.6618 5.66178C11.7152 5.60837 11.7573 5.54474 11.7856 5.4747C11.8139 5.40466 11.8278 5.32964 11.8265 5.25411C11.8251 5.17858 11.8086 5.1041 11.7778 5.0351C11.7471 4.9661 11.7028 4.904 11.6475 4.8525L9.39751 2.6025C9.29204 2.49716 9.14907 2.438 9.00001 2.438C8.85094 2.438 8.70798 2.49716 8.60251 2.6025L6.35251 4.8525C6.25315 4.95913 6.19905 5.10017 6.20163 5.24589C6.2042 5.39162 6.26323 5.53066 6.36629 5.63372C6.46935 5.73678 6.60839 5.79581 6.75412 5.79838C6.89984 5.80095 7.04088 5.74686 7.14751 5.6475L8.43751 4.3575V10.5C8.43751 10.6492 8.49677 10.7923 8.60226 10.8977C8.70775 11.0032 8.85082 11.0625 9.00001 11.0625C9.14919 11.0625 9.29227 11.0032 9.39775 10.8977C9.50324 10.7923 9.56251 10.6492 9.56251 10.5V4.3575L10.8525 5.6475Z" fill="currentColor"/>
    <path d="M15.5625 9C15.5625 8.85082 15.5032 8.70774 15.3977 8.60225C15.2923 8.49676 15.1492 8.4375 15 8.4375C14.8508 8.4375 14.7077 8.49676 14.6023 8.60225C14.4968 8.70774 14.4375 8.85082 14.4375 9C14.4375 9.71406 14.2969 10.4211 14.0236 11.0808C13.7503 11.7405 13.3498 12.34 12.8449 12.8449C12.34 13.3498 11.7405 13.7503 11.0808 14.0236C10.4211 14.2969 9.71406 14.4375 9 14.4375C8.28594 14.4375 7.57887 14.2969 6.91916 14.0236C6.25945 13.7503 5.66003 13.3498 5.15511 12.8449C4.65019 12.34 4.24966 11.7405 3.9764 11.0808C3.70314 10.4211 3.5625 9.71406 3.5625 9C3.5625 8.85082 3.50324 8.70774 3.39775 8.60225C3.29226 8.49676 3.14918 8.4375 3 8.4375C2.85082 8.4375 2.70774 8.49676 2.60225 8.60225C2.49676 8.70774 2.4375 8.85082 2.4375 9C2.4375 10.7405 3.1289 12.4097 4.35961 13.6404C5.59032 14.8711 7.25952 15.5625 9 15.5625C10.7405 15.5625 12.4097 14.8711 13.6404 13.6404C14.8711 12.4097 15.5625 10.7405 15.5625 9Z" fill="currentColor"/>
</svg>
