<svg width="24" height="24" viewBox="0 0 24 24" fill="none" xmlns="http://www.w3.org/2000/svg">
    <path fill-rule="evenodd" clip-rule="evenodd" d="M5.117 7.75203C5.31536 7.73886 5.51084 7.80498 5.66047 7.93586C5.8101 8.06675 5.90165 8.25168 5.915 8.45003L6.375 15.35C6.465 16.697 6.529 17.635 6.669 18.34C6.806 19.025 6.996 19.387 7.269 19.643C7.543 19.899 7.917 20.065 8.609 20.155C9.323 20.248 10.263 20.25 11.613 20.25H12.387C13.737 20.25 14.677 20.248 15.391 20.155C16.083 20.065 16.457 19.899 16.731 19.643C17.004 19.387 17.194 19.025 17.331 18.341C17.471 17.635 17.535 16.697 17.625 15.349L18.085 8.45003C18.0916 8.35174 18.1174 8.2557 18.1611 8.1674C18.2048 8.0791 18.2654 8.00027 18.3396 7.93541C18.4137 7.87055 18.4999 7.82092 18.5933 7.78937C18.6866 7.75782 18.7852 7.74497 18.8835 7.75153C18.9818 7.7581 19.0778 7.78396 19.1661 7.82764C19.2544 7.87133 19.3333 7.93197 19.3981 8.00612C19.463 8.08027 19.5126 8.16646 19.5442 8.25979C19.5757 8.35311 19.5886 8.45174 19.582 8.55003L19.118 15.502C19.033 16.784 18.964 17.821 18.802 18.634C18.633 19.479 18.347 20.185 17.755 20.738C17.163 21.291 16.44 21.531 15.585 21.642C14.763 21.75 13.725 21.75 12.44 21.75H11.56C10.275 21.75 9.237 21.75 8.415 21.642C7.56 21.531 6.836 21.292 6.245 20.738C5.653 20.185 5.367 19.478 5.198 18.634C5.036 17.82 4.968 16.784 4.882 15.502L4.418 8.55003C4.41148 8.45173 4.42439 8.35312 4.456 8.25981C4.4876 8.1665 4.53728 8.08033 4.60219 8.00623C4.6671 7.93212 4.74597 7.87153 4.83431 7.82792C4.92264 7.7843 5.0187 7.75852 5.117 7.75203ZM10.355 2.25003H10.309C10.093 2.25003 9.904 2.25003 9.726 2.27803C9.37929 2.33358 9.05039 2.46949 8.76561 2.67491C8.48084 2.88033 8.24809 3.14955 8.086 3.46103C8.002 3.62103 7.943 3.80003 7.875 4.00503L7.86 4.04903L7.763 4.33903L7.734 4.42503C7.64346 4.67636 7.47479 4.89206 7.25272 5.04053C7.03064 5.189 6.76685 5.26242 6.5 5.25003H3.5C3.30109 5.25003 3.11032 5.32905 2.96967 5.4697C2.82902 5.61035 2.75 5.80112 2.75 6.00003C2.75 6.19895 2.82902 6.38971 2.96967 6.53036C3.11032 6.67101 3.30109 6.75003 3.5 6.75003H20.501C20.6999 6.75003 20.8907 6.67101 21.0313 6.53036C21.172 6.38971 21.251 6.19895 21.251 6.00003C21.251 5.80112 21.172 5.61035 21.0313 5.4697C20.8907 5.32905 20.6999 5.25003 20.501 5.25003H17.41C17.1429 5.24363 16.8849 5.1518 16.6738 4.98803C16.4627 4.82426 16.3096 4.59716 16.237 4.34003L16.14 4.04903L16.126 4.00503C16.057 3.80003 15.998 3.62103 15.915 3.46103C15.7528 3.14943 15.5199 2.88013 15.2349 2.67471C14.95 2.46928 14.6209 2.33343 14.274 2.27803C14.0806 2.25451 13.8858 2.24516 13.691 2.25003H10.355ZM9.145 4.93503C9.105 5.04437 9.05933 5.14937 9.008 5.25003H14.992C14.9407 5.14804 14.8953 5.0432 14.856 4.93603L14.816 4.82203L14.717 4.52203C14.6807 4.3966 14.6363 4.27367 14.584 4.15403C14.53 4.05004 14.4524 3.96014 14.3574 3.89155C14.2624 3.82295 14.1527 3.77757 14.037 3.75903C13.9067 3.74749 13.7757 3.74448 13.645 3.75003H10.355C10.067 3.75003 10.007 3.75203 9.963 3.76003C9.8474 3.77846 9.73772 3.8237 9.64274 3.89211C9.54775 3.96053 9.4701 4.05023 9.416 4.15403C9.396 4.19403 9.374 4.24903 9.283 4.52303L9.183 4.82303L9.145 4.93503Z" fill="currentColor"/>
</svg>
