<svg width="18" height="18" viewBox="0 0 18 18" fill="none" xmlns="http://www.w3.org/2000/svg">
    <path d="M6.75 1.3125C7.59538 1.3125 8.40613 1.64832 9.00391 2.24609C9.60168 2.84387 9.9375 3.65462 9.9375 4.5C9.9375 5.34538 9.60168 6.15613 9.00391 6.75391C8.40613 7.35168 7.59538 7.6875 6.75 7.6875C5.90462 7.6875 5.09387 7.35168 4.49609 6.75391C3.89832 6.15613 3.5625 5.34538 3.5625 4.5L3.56641 4.3418C3.60552 3.55402 3.93572 2.80647 4.49609 2.24609C5.09387 1.64832 5.90462 1.3125 6.75 1.3125ZM6.75 1.6875C6.00408 1.6875 5.28916 1.98427 4.76172 2.51172C4.23427 3.03916 3.9375 3.75408 3.9375 4.5C3.9375 5.24592 4.23427 5.96084 4.76172 6.48828C5.28916 7.01573 6.00408 7.3125 6.75 7.3125C7.49592 7.3125 8.21084 7.01573 8.73828 6.48828C9.26573 5.96084 9.5625 5.24592 9.5625 4.5C9.5625 3.75408 9.26573 3.03916 8.73828 2.51172C8.21084 1.98427 7.49592 1.6875 6.75 1.6875Z" fill="currentColor" stroke="currentColor" stroke-width="0.75"/>
    <path d="M11.25 2.0625C11.8965 2.0625 12.5165 2.31925 12.9736 2.77637C13.4308 3.23349 13.6875 3.85353 13.6875 4.5C13.6875 5.14647 13.4308 5.76651 12.9736 6.22363C12.5165 6.68075 11.8965 6.9375 11.25 6.9375C11.2003 6.9375 11.1524 6.91798 11.1172 6.88281C11.082 6.84765 11.0625 6.79973 11.0625 6.75C11.0625 6.70027 11.082 6.65235 11.1172 6.61719C11.1524 6.58202 11.2003 6.5625 11.25 6.5625C11.797 6.5625 12.3212 6.3448 12.708 5.95801C13.0948 5.57121 13.3125 5.04701 13.3125 4.5C13.3125 3.95299 13.0948 3.42879 12.708 3.04199C12.3212 2.6552 11.797 2.4375 11.25 2.4375C11.2003 2.4375 11.1524 2.41798 11.1172 2.38281C11.082 2.34765 11.0625 2.29973 11.0625 2.25C11.0625 2.20027 11.082 2.15235 11.1172 2.11719C11.1524 2.08202 11.2003 2.0625 11.25 2.0625Z" fill="#808792" stroke="currentColor" stroke-width="0.75"/>
    <path fill-rule="evenodd" clip-rule="evenodd" d="M2.7585 10.14C3.8085 9.54 5.22075 9.1875 6.75 9.1875C8.27925 9.1875 9.6915 9.54 10.7415 10.14C11.775 10.731 12.5625 11.6325 12.5625 12.75C12.5625 13.8675 11.775 14.769 10.7415 15.36C9.6915 15.96 8.27925 16.3125 6.75 16.3125C5.22075 16.3125 3.8085 15.96 2.7585 15.36C1.725 14.769 0.9375 13.8675 0.9375 12.75C0.9375 11.6325 1.725 10.731 2.7585 10.14ZM3.3165 11.1172C2.45025 11.6123 2.0625 12.21 2.0625 12.75C2.0625 13.29 2.45025 13.8878 3.3165 14.3828C4.167 14.8688 5.37975 15.1875 6.75 15.1875C8.12025 15.1875 9.333 14.8688 10.1835 14.3828C11.0498 13.8878 11.4375 13.2892 11.4375 12.75C11.4375 12.2108 11.0498 11.6123 10.1835 11.1172C9.333 10.6312 8.12025 10.3125 6.75 10.3125C5.37975 10.3125 4.167 10.6312 3.3165 11.1172Z" fill="currentColor"/>
    <path d="M13.62 9.9502C13.4742 9.91838 13.3217 9.94577 13.1961 10.0264C13.0705 10.107 12.9821 10.2341 12.9503 10.38C12.9184 10.5258 12.9458 10.6782 13.0264 10.8038C13.107 10.9294 13.2342 11.0179 13.38 11.0497C13.974 11.1795 14.4488 11.4037 14.7623 11.6602C15.0758 11.9167 15.1875 12.168 15.1875 12.375C15.1875 12.5625 15.0975 12.7837 14.8478 13.0155C14.5965 13.2487 14.2103 13.464 13.713 13.614C13.6422 13.6352 13.5764 13.6702 13.5191 13.717C13.4619 13.7637 13.4144 13.8213 13.3794 13.8863C13.3444 13.9514 13.3226 14.0228 13.3152 14.0963C13.3077 14.1698 13.3149 14.2441 13.3361 14.3148C13.3574 14.3856 13.3924 14.4515 13.4392 14.5087C13.4859 14.566 13.5434 14.6134 13.6085 14.6484C13.6736 14.6834 13.7449 14.7053 13.8185 14.7127C13.892 14.7201 13.9662 14.713 14.037 14.6917C14.6543 14.5057 15.2055 14.2185 15.6135 13.8397C16.023 13.4595 16.3125 12.9592 16.3125 12.375C16.3125 11.7262 15.957 11.184 15.4748 10.7895C14.9918 10.3942 14.3415 10.1085 13.62 9.9502Z" fill="currentColor"/>
</svg>
