<svg width="18" height="19" viewBox="0 0 18 19" fill="none" xmlns="http://www.w3.org/2000/svg">
    <g clip-path="url(#clip0_63_4347)">
        <path fill-rule="evenodd" clip-rule="evenodd" d="M6.147 3.02325C4.74704 3.62777 3.57338 4.6584 2.793 5.9685H5.03963C5.21588 5.18775 5.44837 4.47 5.72812 3.83963C5.85176 3.55959 5.99163 3.287 6.147 3.02325ZM1.78125 9.65625C1.78125 9.0975 1.845 8.55338 1.965 8.031H4.71975C4.67114 8.57138 4.64699 9.11369 4.64738 9.65625C4.64738 10.2098 4.67175 10.7531 4.71975 11.2808H1.96462C1.84234 10.7479 1.78083 10.2029 1.78125 9.65625ZM2.79262 13.3433C3.57298 14.6537 4.74679 15.6846 6.147 16.2892C5.99163 16.0255 5.85176 15.7529 5.72812 15.4729C5.448 14.8425 5.21588 14.1244 5.03963 13.3433H2.79262ZM6.96975 13.3433C7.09074 13.8111 7.24861 14.2687 7.44187 14.7116C7.719 15.3356 8.02463 15.7822 8.31713 16.0605C8.60437 16.3342 8.8335 16.4062 8.99963 16.4062C9.16575 16.4062 9.39525 16.3342 9.68287 16.0605C9.975 15.7822 10.281 15.3356 10.5581 14.7116C10.737 14.3085 10.8964 13.8491 11.0302 13.3433H6.96975ZM12.9604 13.3433C12.7841 14.1244 12.5516 14.8425 12.2715 15.4729C12.1479 15.7529 12.008 16.0255 11.8526 16.2892C13.253 15.6847 14.4269 14.6537 15.2074 13.3433H12.9604ZM16.0354 11.2808H13.2803C13.3288 10.7406 13.353 10.1986 13.3526 9.65625C13.3526 9.10238 13.3279 8.559 13.2803 8.031H16.035C16.155 8.55338 16.2188 9.0975 16.2188 9.65625C16.2188 10.215 16.155 10.7587 16.035 11.2808M11.3962 11.2808H6.603C6.54881 10.741 6.52191 10.1988 6.52238 9.65625C6.52237 9.09375 6.5505 8.55 6.60337 8.031H11.3962C11.4487 8.55 11.4773 9.09412 11.4773 9.65625C11.4773 10.2184 11.4491 10.7618 11.3962 11.2808ZM12.96 5.9685H15.2066C14.4262 4.65834 13.2524 3.62771 11.8523 3.02325C12.0045 3.27975 12.144 3.55388 12.2711 3.83963C12.5512 4.46962 12.7834 5.18775 12.9596 5.9685M7.44112 4.60087C7.2479 5.04357 7.09003 5.50088 6.969 5.9685H11.0291C10.9082 5.50089 10.7505 5.04358 10.5574 4.60087C10.2799 3.97688 9.97425 3.53025 9.68213 3.252C9.39525 2.97825 9.16613 2.90625 9 2.90625C8.83387 2.90625 8.60437 2.97825 8.31713 3.252C8.02463 3.53025 7.719 3.97688 7.44187 4.60087M9 0.9375C4.185 0.9375 0.28125 4.84125 0.28125 9.65625C0.28125 14.4713 4.185 18.375 9 18.375C13.815 18.375 17.7188 14.4713 17.7188 9.65625C17.7188 4.84125 13.815 0.9375 9 0.9375Z" fill="currentColor"/>
    </g>
</svg>
